<?xml version="1.0" standalone="no"?>
<!DOCTYPE svg PUBLIC "-//W3C//DTD SVG 20010904//EN"
 "http://www.w3.org/TR/2001/REC-SVG-20010904/DTD/svg10.dtd">
<svg version="1.0" xmlns="http://www.w3.org/2000/svg"
 width="700.000000pt" height="700.000000pt" viewBox="0 0 700.000000 700.000000"
 preserveAspectRatio="xMidYMid meet">
<g transform="translate(0.000000,700.000000) scale(0.100000,-0.100000)"
fill="#000000" stroke="none">
<path d="M3248 6996 c-1 -2 -37 -6 -78 -9 -72 -6 -208 -23 -260 -33 -14 -2
-40 -7 -57 -9 -18 -3 -54 -10 -80 -16 -27 -6 -56 -12 -65 -14 -189 -39 -516
-152 -714 -246 -190 -91 -505 -281 -501 -302 1 -7 -4 -11 -11 -9 -11 2 -100
-58 -138 -93 -6 -5 -26 -21 -44 -35 -76 -58 -170 -143 -170 -155 0 -4 174
-182 388 -397 213 -214 407 -410 431 -434 44 -44 44 -44 65 -26 12 11 32 28
44 38 13 11 33 27 44 37 45 37 247 167 328 210 162 86 404 176 545 203 11 2
31 6 45 9 80 17 127 24 275 40 51 6 297 6 350 0 170 -17 203 -23 325 -50 404
-92 766 -292 1061 -585 127 -127 152 -155 222 -250 27 -36 54 -72 61 -80 25
-32 116 -189 166 -289 79 -157 172 -438 195 -586 3 -22 8 -56 11 -75 3 -19 8
-46 10 -60 13 -65 12 -469 -1 -560 -24 -161 -26 -172 -51 -275 -57 -227 -161
-472 -277 -653 -26 -39 -45 -72 -42 -72 2 0 -5 -10 -16 -23 -39 -44 -150 -189
-147 -193 2 -2 194 -197 428 -434 378 -383 450 -450 450 -422 0 4 17 25 38 47
218 236 473 654 610 1000 86 217 170 517 198 702 3 21 7 45 9 53 2 8 7 42 10
75 4 33 8 71 11 85 25 141 24 600 -1 800 -12 89 -47 296 -57 335 -6 22 -12 52
-15 68 -8 52 -72 264 -118 393 -54 152 -44 129 -139 324 -96 199 -128 255
-242 425 -481 720 -1204 1232 -2034 1440 -74 18 -148 36 -165 39 -139 24 -210
35 -270 41 -39 4 -81 9 -95 12 -29 5 -526 13 -532 9z"/>
<path d="M895 5847 c-10 -12 -43 -52 -74 -88 -82 -98 -86 -102 -154 -197 -253
-349 -444 -754 -552 -1168 -23 -89 -61 -267 -70 -333 -2 -14 -6 -42 -10 -62
-6 -40 -10 -75 -22 -199 -10 -105 -10 -500 0 -595 4 -38 10 -99 13 -135 5 -54
41 -263 57 -335 44 -190 111 -404 178 -570 35 -84 138 -302 169 -355 92 -158
124 -210 178 -290 434 -633 1063 -1110 1777 -1345 96 -31 220 -66 281 -80 10
-2 60 -13 109 -23 218 -48 404 -66 680 -66 230 -1 367 8 507 30 24 3 52 8 63
9 57 7 243 49 340 76 61 16 117 32 126 34 22 5 174 59 239 85 78 31 105 41
107 41 6 -1 284 141 353 180 124 69 379 247 475 330 16 15 55 48 85 74 30 27
56 51 58 55 1 4 -191 203 -428 443 l-432 435 -101 -80 c-400 -313 -877 -478
-1382 -479 -256 -1 -540 49 -765 134 -112 43 -122 47 -220 96 -94 48 -113 59
-207 115 -161 98 -365 277 -504 441 -19 22 -39 46 -46 53 -64 67 -221 321
-280 450 -19 42 -41 92 -49 110 -51 111 -128 400 -149 557 -10 75 -18 210 -18
295 -1 98 10 279 17 301 3 8 7 34 10 59 4 39 14 91 30 165 15 71 43 162 78
259 56 155 60 163 98 236 19 36 33 68 32 72 -1 3 5 12 13 18 8 7 15 17 15 22
0 17 123 201 193 287 l68 85 -165 165 c-91 91 -286 288 -434 438 l-268 272
-19 -22z"/>
</g>
</svg>