<?xml version="1.0" encoding="UTF-8"?>
<svg id="_레이어_1" data-name="레이어_1" xmlns="http://www.w3.org/2000/svg" viewBox="0 0 219.23 97.81">
  <defs>
    <style>
      .cls-1 {
        fill: #fff;
      }
    </style>
  </defs>
  <g>
    <path class="cls-1" d="M27.27,61.27h-2.93v-2.55h8.67v2.55h-2.93v15.29h-2.8v-15.29Z"/>
    <path class="cls-1" d="M34.35,58.72h2.8v7.26h3.01v-7.26h2.8v17.84h-2.8v-8.03h-3.01v8.03h-2.8v-17.84Z"/>
    <path class="cls-1" d="M45.05,58.72h7.65v2.55h-4.84v4.72h3.85v2.55h-3.85v5.48h4.84v2.55h-7.65v-17.84Z"/>
  </g>
  <g>
    <path class="cls-1" d="M61.4,72.97v-2.22h5.76v2.66c0,2.77,1.22,3.77,3.16,3.77s3.16-1,3.16-3.88c0-3.21-1.22-5.27-5.21-8.76-5.1-4.49-6.76-7.65-6.76-12.08,0-6.1,3.16-9.64,9.09-9.64s8.87,3.55,8.87,9.76v1.61h-5.76v-2c0-2.77-1.11-3.82-3.05-3.82s-3.05,1.05-3.05,3.71c0,2.83,1.27,4.88,5.27,8.37,5.1,4.49,6.71,7.59,6.71,12.41,0,6.32-3.21,9.87-9.2,9.87s-8.98-3.55-8.98-9.75Z"/>
    <path class="cls-1" d="M83.06,43.37h6.1v16.35l7.76-16.35h6.1l-7.26,14.24,7.37,24.55h-6.37l-5.15-17.29-2.44,4.93v12.36h-6.1v-38.8Z"/>
    <path class="cls-1" d="M111.61,65.65l-7.37-22.28h6.48l4.16,14.24h.11l4.16-14.24h5.93l-7.37,22.28v16.52h-6.1v-16.52Z"/>
    <path class="cls-1" d="M135.49,76.74l11.31-27.82h-10.75v-5.54h17.29v5.43l-11.31,27.82h11.31v5.54h-17.85v-5.43Z"/>
    <path class="cls-1" d="M156.33,72.97v-20.4c0-6.21,3.27-9.76,9.26-9.76s9.26,3.55,9.26,9.76v20.4c0,6.21-3.27,9.75-9.26,9.75s-9.26-3.55-9.26-9.75ZM168.74,73.36v-21.17c0-2.77-1.22-3.82-3.16-3.82s-3.16,1.05-3.16,3.82v21.17c0,2.77,1.22,3.82,3.16,3.82s3.16-1.05,3.16-3.82Z"/>
    <path class="cls-1" d="M178.94,43.37h7.65l5.93,23.22h.11v-23.22h5.43v38.8h-6.26l-7.32-28.32h-.11v28.32h-5.43v-38.8Z"/>
    <path class="cls-1" d="M202.6,43.37h16.63v5.54h-10.53v10.25h8.37v5.54h-8.37v11.92h10.53v5.54h-16.63v-38.8Z"/>
  </g>
  <path class="cls-1" d="M152.04,16.79h5.72c1.54,0,2.79-1.25,2.79-2.79s-1.25-2.79-2.79-2.79h-5.72c-1.54,0-2.79,1.25-2.79,2.79s1.25,2.79,2.79,2.79Z"/>
  <path class="cls-1" d="M157.76,27.96h-18.47c1.54,0,2.79-1.25,2.79-2.79s-1.25-2.79-2.79-2.79h-21.85c-1.54,0-2.79-1.25-2.79-2.79,0-1.29.87-2.36,2.06-2.68.24-.07.48-.11.74-.11h21.85c1.54,0,2.79-1.25,2.79-2.79s-1.25-2.79-2.79-2.79h-27.45C104.39,3.98,94.6,0,84.22,0c-12.3,0-23.88,5.72-31.38,15.41-2.17-.58-4.42-.88-6.69-.88-12.92,0-23.78,9.61-25.52,22.22C8.39,41.1,0,52.86,0,65.98v.8c0,17.11,13.92,31.03,31.03,31.03h96.88c1.54,0,2.79-1.25,2.79-2.79s-1.25-2.79-2.79-2.79H31.03c-14.03,0-25.44-11.41-25.44-25.44v-.8c0-11.28,7.57-21.34,18.41-24.45l1.89-.54.12-1.97c.66-10.6,9.51-18.9,20.14-18.9,2.34,0,4.63.4,6.82,1.18l2.02.72,1.22-1.76c6.38-9.19,16.85-14.68,28.01-14.68,6.84,0,13.24,2.07,18.61,5.61,2.4,1.59,4.6,3.46,6.54,5.59,1.56,1.71,2.95,3.59,4.15,5.59,1.05,1.77,1.95,3.64,2.67,5.59,0,.02.01.03.02.05.66,1.78,1.17,3.63,1.53,5.54h40.03c1.54,0,2.79-1.25,2.79-2.79s-1.25-2.79-2.79-2.79Z"/>
  <g>
    <path class="cls-1" d="M137.08,93.68h-1.11v-.79h3.19v.79h-1.13v3.36h-.94v-3.36Z"/>
    <path class="cls-1" d="M143.52,94.93c0,1.36-.83,2.18-2.04,2.18s-1.95-.93-1.95-2.11c0-1.24.79-2.17,2.02-2.17s1.97.95,1.97,2.1ZM140.52,94.98c0,.81.38,1.38,1.01,1.38s1-.6,1-1.41c0-.74-.36-1.38-1-1.38s-1,.6-1,1.41Z"/>
    <path class="cls-1" d="M145.01,93.68h-1.11v-.79h3.19v.79h-1.13v3.36h-.94v-3.36Z"/>
    <path class="cls-1" d="M148.36,95.98l-.29,1.06h-.97l1.27-4.15h1.23l1.29,4.15h-1.01l-.32-1.06h-1.19ZM149.41,95.28l-.26-.88c-.07-.25-.15-.55-.21-.8h-.01c-.06.25-.12.56-.19.8l-.25.88h.92Z"/>
    <path class="cls-1" d="M151.67,92.9h.94v3.36h1.65v.79h-2.59v-4.15Z"/>
    <path class="cls-1" d="M155.1,96.08c.25.13.64.26,1.04.26.43,0,.66-.18.66-.45s-.2-.41-.69-.58c-.69-.24-1.14-.62-1.14-1.22,0-.71.59-1.25,1.57-1.25.47,0,.81.1,1.06.21l-.21.76c-.17-.08-.46-.2-.87-.2s-.6.18-.6.4c0,.26.23.38.77.58.73.27,1.08.65,1.08,1.24,0,.7-.54,1.29-1.67,1.29-.47,0-.94-.12-1.18-.25l.19-.78Z"/>
    <path class="cls-1" d="M159.58,92.9v1.59h1.54v-1.59h.94v4.15h-.94v-1.74h-1.54v1.74h-.94v-4.15h.94Z"/>
    <path class="cls-1" d="M164.07,92.9v4.15h-.94v-4.15h.94Z"/>
    <path class="cls-1" d="M165.13,92.9h2.53v.77h-1.59v.95h1.49v.76h-1.49v1.67h-.94v-4.15Z"/>
    <path class="cls-1" d="M169.42,93.68h-1.11v-.79h3.19v.79h-1.13v3.36h-.94v-3.36Z"/>
    <path class="cls-1" d="M176.78,96.93c-.17.09-.56.18-1.06.18-1.43,0-2.17-.89-2.17-2.07,0-1.42,1.01-2.2,2.26-2.2.49,0,.86.1,1.02.18l-.19.74c-.19-.08-.46-.15-.79-.15-.74,0-1.32.45-1.32,1.37,0,.83.49,1.35,1.33,1.35.28,0,.6-.06.78-.14l.14.73Z"/>
    <path class="cls-1" d="M177.64,92.9h.94v3.36h1.65v.79h-2.59v-4.15Z"/>
    <path class="cls-1" d="M184.6,94.93c0,1.36-.83,2.18-2.04,2.18s-1.95-.93-1.95-2.11c0-1.24.79-2.17,2.02-2.17s1.97.95,1.97,2.1ZM181.6,94.98c0,.81.38,1.38,1.01,1.38s1-.6,1-1.41c0-.74-.36-1.38-1-1.38s-1,.6-1,1.41Z"/>
    <path class="cls-1" d="M186.4,92.9v2.39c0,.71.27,1.08.75,1.08s.76-.34.76-1.08v-2.39h.94v2.33c0,1.28-.65,1.89-1.73,1.89s-1.66-.58-1.66-1.9v-2.31h.94Z"/>
    <path class="cls-1" d="M189.91,92.95c.34-.06.79-.09,1.27-.09.79,0,1.3.14,1.7.44.43.32.7.83.7,1.56,0,.79-.29,1.34-.69,1.68-.44.36-1.1.54-1.91.54-.49,0-.83-.03-1.06-.06v-4.07ZM190.85,96.34c.08.02.21.02.33.02.85,0,1.4-.46,1.4-1.45,0-.86-.5-1.32-1.3-1.32-.21,0-.35.02-.42.04v2.71Z"/>
    <path class="cls-1" d="M195.96,96.08c.25.13.64.26,1.04.26.43,0,.66-.18.66-.45s-.2-.41-.7-.58c-.69-.24-1.14-.62-1.14-1.22,0-.71.59-1.25,1.57-1.25.47,0,.81.1,1.06.21l-.21.76c-.17-.08-.46-.2-.87-.2s-.6.18-.6.4c0,.26.23.38.77.58.73.27,1.08.65,1.08,1.24,0,.7-.54,1.29-1.67,1.29-.47,0-.94-.12-1.18-.25l.19-.78Z"/>
    <path class="cls-1" d="M200.46,97.04v-1.7l-1.31-2.45h1.07l.42,1c.13.3.22.52.32.79h.01c.09-.26.19-.5.31-.79l.42-1h1.05l-1.37,2.42v1.73h-.94Z"/>
    <path class="cls-1" d="M203.31,96.08c.25.13.64.26,1.04.26.43,0,.66-.18.66-.45s-.2-.41-.7-.58c-.69-.24-1.14-.62-1.14-1.22,0-.71.59-1.25,1.57-1.25.47,0,.81.1,1.06.21l-.21.76c-.17-.08-.46-.2-.87-.2s-.6.18-.6.4c0,.26.23.38.77.58.73.27,1.08.65,1.08,1.24,0,.7-.54,1.29-1.67,1.29-.47,0-.94-.12-1.17-.25l.19-.78Z"/>
    <path class="cls-1" d="M207.65,93.68h-1.11v-.79h3.19v.79h-1.13v3.36h-.94v-3.36Z"/>
    <path class="cls-1" d="M212.94,95.29h-1.53v.98h1.7v.77h-2.65v-4.15h2.56v.77h-1.62v.86h1.53v.76Z"/>
    <path class="cls-1" d="M217.52,95.46c-.02-.5-.04-1.1-.04-1.7h-.02c-.13.53-.3,1.12-.46,1.61l-.51,1.62h-.73l-.44-1.61c-.14-.49-.28-1.08-.38-1.62h-.01c-.02.56-.04,1.2-.07,1.72l-.07,1.58h-.87l.26-4.15h1.25l.41,1.38c.13.48.26,1,.35,1.48h.02c.12-.48.26-1.03.39-1.49l.44-1.38h1.22l.23,4.15h-.92l-.06-1.59Z"/>
  </g>
</svg>