<?xml version="1.0" encoding="UTF-8"?>
<svg version="1.1" xmlns="http://www.w3.org/2000/svg" width="913" height="909">
<path d="M0 0 C29.7 0 59.4 0 90 0 C90.33 0.99 90.66 1.98 91 3 C91.82725586 2.99476318 92.65451172 2.98952637 93.50683594 2.98413086 C97.25454957 2.96334531 101.00225106 2.95033476 104.75 2.9375 C106.05195312 2.92912109 107.35390625 2.92074219 108.6953125 2.91210938 C110.57089844 2.90727539 110.57089844 2.90727539 112.484375 2.90234375 C114.21252441 2.89448853 114.21252441 2.89448853 115.97558594 2.88647461 C118.51926964 2.98195515 120.58398313 3.25082739 123 4 C123 4.99 123 5.98 123 7 C128.28 7 133.56 7 139 7 C139 7.99 139 8.98 139 10 C143.29 10 147.58 10 152 10 C152 10.99 152 11.98 152 13 C156.29 13 160.58 13 165 13 C165 13.99 165 14.98 165 16 C167.97 16 170.94 16 174 16 C174.33 16.99 174.66 17.98 175 19 C177.64 19 180.28 19 183 19 C183.33 20.32 183.66 21.64 184 23 C187.3 23 190.6 23 194 23 C194 23.99 194 24.98 194 26 C196.97 26 199.94 26 203 26 C203 26.99 203 27.98 203 29 C206.3 29 209.6 29 213 29 C213 29.99 213 30.98 213 32 C214.98 32 216.96 32 219 32 C219 32.99 219 33.98 219 35 C219.928125 34.95875 220.85625 34.9175 221.8125 34.875 C225 35 225 35 228 37 C228 37.66 228 38.32 228 39 C230.31 39 232.62 39 235 39 C235 39.99 235 40.98 235 42 C237.31 42 239.62 42 242 42 C242 42.99 242 43.98 242 45 C243.98 45 245.96 45 248 45 C248 45.99 248 46.98 248 48 C249.98 48 251.96 48 254 48 C254.33 48.99 254.66 49.98 255 51 C256.65 51 258.3 51 260 51 C260.33 52.32 260.66 53.64 261 55 C262.98 55 264.96 55 267 55 C267 55.99 267 56.98 267 58 C269.31 58 271.62 58 274 58 C274 58.99 274 59.98 274 61 C275.98 61 277.96 61 280 61 C280 61.99 280 62.98 280 64 C280.99 64 281.98 64 283 64 C283 64.99 283 65.98 283 67 C284.98 67 286.96 67 289 67 C289.33 68.32 289.66 69.64 290 71 C290.7425 71.12375 291.485 71.2475 292.25 71.375 C294.80141485 71.95486701 296.7267573 72.73708739 299 74 C299 74.99 299 75.98 299 77 C300.32 77 301.64 77 303 77 C303 77.99 303 78.98 303 80 C304.98 80 306.96 80 309 80 C309 80.99 309 81.98 309 83 C309.99 83 310.98 83 312 83 C312 84.32 312 85.64 312 87 C313.98 87 315.96 87 318 87 C318.33 87.99 318.66 88.98 319 90 C319.99 90 320.98 90 322 90 C322 90.99 322 91.98 322 93 C322.99 93 323.98 93 325 93 C325 93.99 325 94.98 325 96 C325.99 96 326.98 96 328 96 C328 96.99 328 97.98 328 99 C329.65 99 331.3 99 333 99 C333.66 100.32 334.32 101.64 335 103 C335.99 103 336.98 103 338 103 C338 103.99 338 104.98 338 106 C338.99 106 339.98 106 341 106 C341 106.99 341 107.98 341 109 C341.99 109 342.98 109 344 109 C344 109.99 344 110.98 344 112 C345.98 112.33 347.96 112.66 350 113 C350 113.66 350 114.32 350 115 C351.32 115.33 352.64 115.66 354 116 C354 116.99 354 117.98 354 119 C354.99 119 355.98 119 357 119 C357 119.99 357 120.98 357 122 C357.99 122 358.98 122 360 122 C360 122.99 360 123.98 360 125 C360.99 125 361.98 125 363 125 C363 125.99 363 126.98 363 128 C364.32 128.33 365.64 128.66 367 129 C367 129.66 367 130.32 367 131 C367.99 131.33 368.98 131.66 370 132 C370 132.99 370 133.98 370 135 C370.99 135 371.98 135 373 135 C373 135.99 373 136.98 373 138 C373.99 138 374.98 138 376 138 C376 138.99 376 139.98 376 141 C376.99 141 377.98 141 379 141 C379 141.99 379 142.98 379 144 C379.99 144 380.98 144 382 144 C382.28875 144.969375 382.5775 145.93875 382.875 146.9375 C383.64214682 150.10664203 383.64214682 150.10664203 386 151 C386 151.99 386 152.98 386 154 C386.99 154 387.98 154 389 154 C389 154.99 389 155.98 389 157 C389.99 157 390.98 157 392 157 C392 157.99 392 158.98 392 160 C392.99 160 393.98 160 395 160 C395 160.99 395 161.98 395 163 C396.32 163.66 397.64 164.32 399 165 C399 166.65 399 168.3 399 170 C399.99 170 400.98 170 402 170 C402 170.99 402 171.98 402 173 C402.99 173 403.98 173 405 173 C405 173.99 405 174.98 405 176 C405.99 176 406.98 176 408 176 C408 176.99 408 177.98 408 179 C408.99 179.33 409.98 179.66 411 180 C411 181.98 411 183.96 411 186 C412.32 186 413.64 186 415 186 C415 186.99 415 187.98 415 189 C415.99 189 416.98 189 418 189 C418.33 189.99 418.66 190.98 419 192 C419.66 192.33 420.32 192.66 421 193 C421 194.98 421 196.96 421 199 C421.99 199 422.98 199 424 199 C424 199.99 424 200.98 424 202 C424.99 202 425.98 202 427 202 C427 203.98 427 205.96 427 208 C428.32 208.33 429.64 208.66 431 209 C431.185625 210.2065625 431.185625 210.2065625 431.375 211.4375 C431.58125 212.283125 431.7875 213.12875 432 214 C432.66 214.33 433.32 214.66 434 215 C434 215.99 434 216.98 434 218 C434.99 218 435.98 218 437 218 C437 219.98 437 221.96 437 224 C437.99 224 438.98 224 440 224 C440 225.32 440 226.64 440 228 C440.99 228 441.98 228 443 228 C443 229.98 443 231.96 443 234 C443.99 234 444.98 234 446 234 C446.33 235.98 446.66 237.96 447 240 C447.99 240.33 448.98 240.66 450 241 C450 242.98 450 244.96 450 247 C450.99 247 451.98 247 453 247 C453 248.98 453 250.96 453 253 C453.99 253 454.98 253 456 253 C456 254.98 456 256.96 456 259 C456.99 259.33 457.98 259.66 459 260 C459 262.97 459 265.94 459 269 C460.32 269.33 461.64 269.66 463 270 C463 271.65 463 273.3 463 275 C463.99 275.33 464.98 275.66 466 276 C466 277.98 466 279.96 466 282 C466.99 282 467.98 282 469 282 C469 284.97 469 287.94 469 291 C469.99 291.33 470.98 291.66 472 292 C472 293.98 472 295.96 472 298 C472.99 298 473.98 298 475 298 C475 301.3 475 304.6 475 308 C475.99 308 476.98 308 478 308 C478.96070434 310.88211302 479.10581883 312.69850044 479.0625 315.6875 C479.05347656 316.49574219 479.04445313 317.30398438 479.03515625 318.13671875 C479.01775391 319.05904297 479.01775391 319.05904297 479 320 C479.99 320 480.98 320 482 320 C482 322.31 482 324.62 482 327 C482.99 327.33 483.98 327.66 485 328 C485 332.95 485 337.9 485 343 C485.99 343 486.98 343 488 343 C488 346.96 488 350.92 488 355 C488.99 355.33 489.98 355.66 491 356 C491 361.28 491 366.56 491 372 C491.99 372.33 492.98 372.66 494 373 C494.92188461 375.76565382 495.11785222 377.38283702 495.09765625 380.23046875 C495.09443359 381.03291016 495.09121094 381.83535156 495.08789062 382.66210938 C495.07951172 383.49548828 495.07113281 384.32886719 495.0625 385.1875 C495.05798828 386.03248047 495.05347656 386.87746094 495.04882812 387.74804688 C495.03705403 389.83206155 495.0191189 391.91603977 495 394 C495.99 394.33 496.98 394.66 498 395 C498 405.23 498 415.46 498 426 C498.66 426 499.32 426 500 426 C500 446.79 500 467.58 500 489 C499.34 489 498.68 489 498 489 C498.00523682 489.89831543 498.01047363 490.79663086 498.01586914 491.72216797 C498.03289725 495.05062499 498.04544337 498.37903581 498.05493164 501.70751953 C498.05996474 503.1489332 498.06679173 504.59034176 498.07543945 506.03173828 C498.08754983 508.10190085 498.09323847 510.17199601 498.09765625 512.2421875 C498.10289307 513.4885498 498.10812988 514.73491211 498.11352539 516.01904297 C498 519 498 519 497 521 C496.34 521 495.68 521 495 521 C495.01740234 522.91425781 495.01740234 522.91425781 495.03515625 524.8671875 C495.04453417 526.53645687 495.05363437 528.20572783 495.0625 529.875 C495.07087891 530.71675781 495.07925781 531.55851563 495.08789062 532.42578125 C495.09111328 533.23144531 495.09433594 534.03710938 495.09765625 534.8671875 C495.10289307 535.61081543 495.10812988 536.35444336 495.11352539 537.12060547 C495 539 495 539 494 541 C493.01 541 492.02 541 491 541 C491 546.28 491 551.56 491 557 C490.34 557.33 489.68 557.66 489 558 C488.5316735 560.58605332 488.5316735 560.58605332 488.375 563.5625 C488.30023437 564.57441406 488.22546875 565.58632813 488.1484375 566.62890625 C488.09945312 567.41136719 488.05046875 568.19382812 488 569 C487.01 569.33 486.02 569.66 485 570 C485 573.96 485 577.92 485 582 C484.34 582.33 483.68 582.66 483 583 C482.53476937 584.89533342 482.53476937 584.89533342 482.375 587.0625 C482.25125 588.361875 482.1275 589.66125 482 591 C481.01 591.33 480.02 591.66 479 592 C479.0309375 593.918125 479.0309375 593.918125 479.0625 595.875 C479.125 599.75 479.125 599.75 478 602 C477.01 602 476.02 602 475 602 C475 604.97 475 607.94 475 611 C474.01 611 473.02 611 472 611 C472 613.31 472 615.62 472 618 C471.01 618 470.02 618 469 618 C469 620.97 469 623.94 469 627 C468.01 627 467.02 627 466 627 C466 628.98 466 630.96 466 633 C465.01 633.33 464.02 633.66 463 634 C463 635.65 463 637.3 463 639 C461.68 639.33 460.36 639.66 459 640 C459 642.31 459 644.62 459 647 C458.01 647 457.02 647 456 647 C456 648.98 456 650.96 456 653 C455.01 653 454.02 653 453 653 C453 655.97 453 658.94 453 662 C452.01 662 451.02 662 450 662 C450 663.32 450 664.64 450 666 C449.01 666 448.02 666 447 666 C447 667.98 447 669.96 447 672 C445.68 672 444.36 672 443 672 C443 674.31 443 676.62 443 679 C442.01 679 441.02 679 440 679 C440 680.98 440 682.96 440 685 C439.01 685 438.02 685 437 685 C437 686.98 437 688.96 437 691 C436.01 691 435.02 691 434 691 C433.67 692.32 433.34 693.64 433 695 C432.34 695 431.68 695 431 695 C431 696.65 431 698.3 431 700 C429.68 700.33 428.36 700.66 427 701 C427 701.99 427 702.98 427 704 C426.01 704 425.02 704 424 704 C424 705.98 424 707.96 424 710 C423.01 710.33 422.02 710.66 421 711 C421 711.99 421 712.98 421 714 C420.01 714 419.02 714 418 714 C418 715.98 418 717.96 418 720 C417.01 720 416.02 720 415 720 C415 720.99 415 721.98 415 723 C413.68 723 412.36 723 411 723 C411 724.98 411 726.96 411 729 C410.34 729.33 409.68 729.66 409 730 C408.67 730.99 408.34 731.98 408 733 C407.01 733 406.02 733 405 733 C405 733.99 405 734.98 405 736 C404.01 736 403.02 736 402 736 C402 736.99 402 737.98 402 739 C401.01 739 400.02 739 399 739 C398.67 741.31 398.34 743.62 398 746 C397.01 746 396.02 746 395 746 C395 746.99 395 747.98 395 749 C394.01 749 393.02 749 392 749 C392 749.99 392 750.98 392 752 C391.01 752 390.02 752 389 752 C389 752.99 389 753.98 389 755 C388.01 755 387.02 755 386 755 C385.67 756.32 385.34 757.64 385 759 C384.34 759 383.68 759 383 759 C382.67 759.99 382.34 760.98 382 762 C381.01 762 380.02 762 379 762 C379 763.65 379 765.3 379 767 C378.01 767.33 377.02 767.66 376 768 C376 768.99 376 769.98 376 771 C375.01 771 374.02 771 373 771 C373 771.99 373 772.98 373 774 C371.03814584 775.71140469 369.03697617 777.37873325 367 779 C366.67 779.66 366.34 780.32 366 781 C365.01 781 364.02 781 363 781 C363 781.99 363 782.98 363 784 C362.01 784 361.02 784 360 784 C360 784.99 360 785.98 360 787 C358.02 787 356.04 787 354 787 C353.67 788.32 353.34 789.64 353 791 C352.34 791 351.68 791 351 791 C350.67 791.99 350.34 792.98 350 794 C349.01 794 348.02 794 347 794 C347 794.99 347 795.98 347 797 C346.01 797 345.02 797 344 797 C344 797.99 344 798.98 344 800 C343.01 800 342.02 800 341 800 C341 800.99 341 801.98 341 803 C340.01 803 339.02 803 338 803 C338 803.99 338 804.98 338 806 C336.68 806.33 335.36 806.66 334 807 C334 807.66 334 808.32 334 809 C332.02 809.33 330.04 809.66 328 810 C328 810.99 328 811.98 328 813 C327.01 813 326.02 813 325 813 C325 813.99 325 814.98 325 816 C324.01 816 323.02 816 322 816 C322 816.99 322 817.98 322 819 C319.69 819 317.38 819 315 819 C315 820.32 315 821.64 315 823 C314.01 823 313.02 823 312 823 C312 823.99 312 824.98 312 826 C310.02 826 308.04 826 306 826 C306 826.99 306 827.98 306 829 C305.01 829 304.02 829 303 829 C302.67 829.99 302.34 830.98 302 832 C298.62132353 834.46552067 297.29441798 835 293 835 C292.67 836.32 292.34 837.64 292 839 C290.35 839 288.7 839 287 839 C286.67 839.99 286.34 840.98 286 842 C285.01 842 284.02 842 283 842 C283 842.99 283 843.98 283 845 C281.02 845 279.04 845 277 845 C277 845.99 277 846.98 277 848 C275.02 848 273.04 848 271 848 C271 848.99 271 849.98 271 851 C268.69 851 266.38 851 264 851 C264 852.32 264 853.64 264 855 C262.02 855 260.04 855 258 855 C258 855.99 258 856.98 258 858 C256.68 858 255.36 858 254 858 C253.67 858.99 253.34 859.98 253 861 C250.36 861 247.72 861 245 861 C245 861.99 245 862.98 245 864 C243.02 864 241.04 864 239 864 C239 864.99 239 865.98 239 867 C236.69 867 234.38 867 232 867 C231.67 868.32 231.34 869.64 231 871 C229.35 871 227.7 871 226 871 C225.67 871.99 225.34 872.98 225 874 C223.02 874 221.04 874 219 874 C219 874.99 219 875.98 219 877 C216.03 877 213.06 877 210 877 C210 877.99 210 878.98 210 880 C207.69 880 205.38 880 203 880 C203 880.99 203 881.98 203 883 C199.04 883 195.08 883 191 883 C190.67 884.32 190.34 885.64 190 887 C187.03 887 184.06 887 181 887 C181 887.99 181 888.98 181 890 C180.36191406 890.04898438 179.72382812 890.09796875 179.06640625 890.1484375 C178.24011719 890.22320313 177.41382813 890.29796875 176.5625 890.375 C175.73878906 890.44460938 174.91507813 890.51421875 174.06640625 890.5859375 C173.38449219 890.72257813 172.70257812 890.85921875 172 891 C171.67 891.66 171.34 892.32 171 893 C167.7 893 164.4 893 161 893 C161 893.99 161 894.98 161 896 C157.04 896 153.08 896 149 896 C149 896.99 149 897.98 149 899 C143.72 899 138.44 899 133 899 C133 899.99 133 900.98 133 902 C129.23699626 903.25433458 125.72789091 903.10695422 121.8125 903.0625 C121.06291016 903.05798828 120.31332031 903.05347656 119.54101562 903.04882812 C117.69397617 903.03706354 115.84697787 903.01912865 114 903 C113.67 903.99 113.34 904.98 113 906 C105.74 906 98.48 906 91 906 C91 906.66 91 907.32 91 908 C59.65 908 28.3 908 -4 908 C-4 907.34 -4 906.68 -4 906 C-4.68102783 906.00523682 -5.36205566 906.01047363 -6.0637207 906.01586914 C-9.14663777 906.03664458 -12.2295401 906.04966198 -15.3125 906.0625 C-16.38435547 906.07087891 -17.45621094 906.07925781 -18.56054688 906.08789062 C-19.58857422 906.09111328 -20.61660156 906.09433594 -21.67578125 906.09765625 C-22.62364502 906.10289307 -23.57150879 906.10812988 -24.5480957 906.11352539 C-27 906 -27 906 -30 905 C-30 904.34 -30 903.68 -30 903 C-34.95 903 -39.9 903 -45 903 C-45.33 901.68 -45.66 900.36 -46 899 C-51.28 899 -56.56 899 -62 899 C-62 898.01 -62 897.02 -62 896 C-65.96 896 -69.92 896 -74 896 C-74.33 895.34 -74.66 894.68 -75 894 C-77.12576782 893.53348793 -77.12576782 893.53348793 -79.5625 893.375 C-80.38878906 893.30023437 -81.21507812 893.22546875 -82.06640625 893.1484375 C-82.70449219 893.09945312 -83.34257812 893.05046875 -84 893 C-84.33 892.01 -84.66 891.02 -85 890 C-87.97 890 -90.94 890 -94 890 C-94 889.01 -94 888.02 -94 887 C-96.97 887 -99.94 887 -103 887 C-103.33 885.68 -103.66 884.36 -104 883 C-106.97 883 -109.94 883 -113 883 C-113 882.01 -113 881.02 -113 880 C-116.3 880 -119.6 880 -123 880 C-123 879.01 -123 878.02 -123 877 C-125.64 877 -128.28 877 -131 877 C-131.33 876.01 -131.66 875.02 -132 874 C-133.98 874 -135.96 874 -138 874 C-138.33 873.01 -138.66 872.02 -139 871 C-140.65 871 -142.3 871 -144 871 C-144.33 869.68 -144.66 868.36 -145 867 C-147.31 867 -149.62 867 -152 867 C-152 866.01 -152 865.02 -152 864 C-153.98 864 -155.96 864 -158 864 C-158 863.01 -158 862.02 -158 861 C-159.98 861 -161.96 861 -164 861 C-164.33 860.01 -164.66 859.02 -165 858 C-166.98 858 -168.96 858 -171 858 C-171 857.01 -171 856.02 -171 855 C-172.65 855 -174.3 855 -176 855 C-176.33 853.68 -176.66 852.36 -177 851 C-179.31 851 -181.62 851 -184 851 C-184 850.01 -184 849.02 -184 848 C-184.99 848 -185.98 848 -187 848 C-187 847.01 -187 846.02 -187 845 C-188.98 845 -190.96 845 -193 845 C-193 844.01 -193 843.02 -193 842 C-194.98 842 -196.96 842 -199 842 C-199.33 841.01 -199.66 840.02 -200 839 C-200.99 838.67 -201.98 838.34 -203 838 C-203 837.01 -203 836.02 -203 835 C-204.98 835 -206.96 835 -209 835 C-209 834.01 -209 833.02 -209 832 C-210.32 832 -211.64 832 -213 832 C-213 831.01 -213 830.02 -213 829 C-214.98 829 -216.96 829 -219 829 C-219 828.01 -219 827.02 -219 826 C-219.99 826 -220.98 826 -222 826 C-222 825.01 -222 824.02 -222 823 C-222.969375 822.87625 -223.93875 822.7525 -224.9375 822.625 C-225.948125 822.41875 -226.95875 822.2125 -228 822 C-228.33 821.34 -228.66 820.68 -229 820 C-229.99 819.67 -230.98 819.34 -232 819 C-232 818.01 -232 817.02 -232 816 C-232.99 816 -233.98 816 -235 816 C-235 815.01 -235 814.02 -235 813 C-236.65 813 -238.3 813 -240 813 C-240.33 812.01 -240.66 811.02 -241 810 C-243.01508358 809.26676204 -243.01508358 809.26676204 -245 809 C-245 808.34 -245 807.68 -245 807 C-245.99 806.67 -246.98 806.34 -248 806 C-248 805.01 -248 804.02 -248 803 C-248.99 803 -249.98 803 -251 803 C-251 802.01 -251 801.02 -251 800 C-251.99 800 -252.98 800 -254 800 C-254 799.01 -254 798.02 -254 797 C-255.65 797 -257.3 797 -259 797 C-259.33 796.01 -259.66 795.02 -260 794 C-262.01508358 793.26676204 -262.01508358 793.26676204 -264 793 C-264 792.34 -264 791.68 -264 791 C-264.99 790.67 -265.98 790.34 -267 790 C-267 789.01 -267 788.02 -267 787 C-267.99 787 -268.98 787 -270 787 C-270 786.01 -270 785.02 -270 784 C-270.99 784 -271.98 784 -273 784 C-273 783.01 -273 782.02 -273 781 C-274.32 781 -275.64 781 -277 781 C-277 780.01 -277 779.02 -277 778 C-277.99 778 -278.98 778 -280 778 C-280 777.01 -280 776.02 -280 775 C-280.99 775 -281.98 775 -283 775 C-283 773.68 -283 772.36 -283 771 C-283.99 771 -284.98 771 -286 771 C-286 770.01 -286 769.02 -286 768 C-286.99 768 -287.98 768 -289 768 C-289 767.01 -289 766.02 -289 765 C-290.32 764.67 -291.64 764.34 -293 764 C-293 763.34 -293 762.68 -293 762 C-293.99 762 -294.98 762 -296 762 C-296 761.01 -296 760.02 -296 759 C-296.99 758.67 -297.98 758.34 -299 758 C-299 757.01 -299 756.02 -299 755 C-299.99 755 -300.98 755 -302 755 C-302 754.01 -302 753.02 -302 752 C-302.99 751.67 -303.98 751.34 -305 751 C-305 749.35 -305 747.7 -305 746 C-306.32 745.67 -307.64 745.34 -309 745 C-309 744.34 -309 743.68 -309 743 C-309.99 742.67 -310.98 742.34 -312 742 C-312 741.01 -312 740.02 -312 739 C-312.99 739 -313.98 739 -315 739 C-315 738.01 -315 737.02 -315 736 C-315.99 736 -316.98 736 -318 736 C-318 734.68 -318 733.36 -318 732 C-318.99 731.67 -319.98 731.34 -321 731 C-321 729.68 -321 728.36 -321 727 C-322.32 726.67 -323.64 726.34 -325 726 C-325 725.01 -325 724.02 -325 723 C-325.99 723 -326.98 723 -328 723 C-328 722.01 -328 721.02 -328 720 C-328.99 720 -329.98 720 -331 720 C-331 718.02 -331 716.04 -331 714 C-331.99 714 -332.98 714 -334 714 C-334 713.01 -334 712.02 -334 711 C-334.99 710.67 -335.98 710.34 -337 710 C-337 708.02 -337 706.04 -337 704 C-338.32 704 -339.64 704 -341 704 C-341 703.01 -341 702.02 -341 701 C-341.66 701 -342.32 701 -343 701 C-343.495 698.03 -343.495 698.03 -344 695 C-344.99 694.67 -345.98 694.34 -347 694 C-347 692.02 -347 690.04 -347 688 C-347.99 688 -348.98 688 -350 688 C-350 687.01 -350 686.02 -350 685 C-350.99 685 -351.98 685 -353 685 C-353 683.02 -353 681.04 -353 679 C-354.32 678.67 -355.64 678.34 -357 678 C-357 676.02 -357 674.04 -357 672 C-357.99 672 -358.98 672 -360 672 C-360 670.02 -360 668.04 -360 666 C-360.99 666 -361.98 666 -363 666 C-363 663.69 -363 661.38 -363 659 C-363.99 659 -364.98 659 -366 659 C-369.19703098 655.09251769 -369.28999491 651.92991345 -369 647 C-370.32 646.67 -371.64 646.34 -373 646 C-373 644.02 -373 642.04 -373 640 C-373.99 640 -374.98 640 -376 640 C-376 638.02 -376 636.04 -376 634 C-376.99 633.67 -377.98 633.34 -379 633 C-379 630.03 -379 627.06 -379 624 C-379.99 624 -380.98 624 -382 624 C-382 622.02 -382 620.04 -382 618 C-382.99 618 -383.98 618 -385 618 C-385 614.7 -385 611.4 -385 608 C-386.32 607.67 -387.64 607.34 -389 607 C-389.1953125 604.94921875 -389.390625 602.8984375 -389.5859375 600.84765625 C-389.79089844 599.93306641 -389.79089844 599.93306641 -390 599 C-390.66 598.67 -391.32 598.34 -392 598 C-392 595.03 -392 592.06 -392 589 C-392.99 588.67 -393.98 588.34 -395 588 C-395 584.04 -395 580.08 -395 576 C-395.99 576 -396.98 576 -398 576 C-398 572.7 -398 569.4 -398 566 C-398.99 566 -399.98 566 -401 566 C-401 560.72 -401 555.44 -401 550 C-401.99 549.67 -402.98 549.34 -404 549 C-405.2062252 545.38132441 -405.10816918 542.07493749 -405.0625 538.3125 C-405.05798828 537.61060547 -405.05347656 536.90871094 -405.04882812 536.18554688 C-405.03706927 534.45699462 -405.01913454 532.72848635 -405 531 C-405.66 531 -406.32 531 -407 531 C-408.30475618 528.39048764 -408.11301572 526.47298715 -408.09765625 523.5546875 C-408.09282227 521.94013672 -408.09282227 521.94013672 -408.08789062 520.29296875 C-408.07951172 519.16503906 -408.07113281 518.03710938 -408.0625 516.875 C-408.05798828 515.73933594 -408.05347656 514.60367188 -408.04882812 513.43359375 C-408.03701615 510.62234362 -408.02054507 507.8111977 -408 505 C-408.66 505 -409.32 505 -410 505 C-411.13335166 502.73329668 -411.12343812 501.51611125 -411.12025452 499.00106812 C-411.12162918 498.16531754 -411.12300385 497.32956696 -411.12442017 496.4684906 C-411.12082489 495.54995804 -411.11722961 494.63142548 -411.11352539 493.68505859 C-411.11367142 492.71916306 -411.11381744 491.75326752 -411.1139679 490.75810242 C-411.11326937 487.55485819 -411.10547978 484.35167161 -411.09765625 481.1484375 C-411.09579186 478.93169181 -411.09436805 476.71494571 -411.09336853 474.49819946 C-411.08954504 468.65546537 -411.07971617 462.81275603 -411.06866455 456.97003174 C-411.05844682 451.01127456 -411.05387013 445.0525134 -411.04882812 439.09375 C-411.03809377 427.39582244 -411.02101935 415.69791328 -411 404 C-410.01 404 -409.02 404 -408 404 C-408 396.41 -408 388.82 -408 381 C-407.34 380.67 -406.68 380.34 -406 380 C-405.71232959 377.51476492 -405.53251504 375.11856552 -405.4375 372.625 C-405.11606176 365.34818527 -405.11606176 365.34818527 -404 362 C-403.01 362 -402.02 362 -401 362 C-401 356.72 -401 351.44 -401 346 C-400.01 346 -399.02 346 -398 346 C-398 342.7 -398 339.4 -398 336 C-397.01 336 -396.02 336 -395 336 C-395 332.04 -395 328.08 -395 324 C-394.01 323.67 -393.02 323.34 -392 323 C-392 320.03 -392 317.06 -392 314 C-391.01 314 -390.02 314 -389 314 C-389 311.03 -389 308.06 -389 305 C-387.68 304.67 -386.36 304.34 -385 304 C-385 301.03 -385 298.06 -385 295 C-384.01 295 -383.02 295 -382 295 C-382 292.03 -382 289.06 -382 286 C-381.01 285.67 -380.02 285.34 -379 285 C-379 283.02 -379 281.04 -379 279 C-378.01 279 -377.02 279 -376 279 C-376 276.03 -376 273.06 -376 270 C-375.01 269.67 -374.02 269.34 -373 269 C-373 267.35 -373 265.7 -373 264 C-371.68 263.67 -370.36 263.34 -369 263 C-369 260.69 -369 258.38 -369 256 C-368.01 256 -367.02 256 -366 256 C-366 254.02 -366 252.04 -366 250 C-365.01 250 -364.02 250 -363 250 C-363 248.02 -363 246.04 -363 244 C-362.01 243.67 -361.02 243.34 -360 243 C-360 241.02 -360 239.04 -360 237 C-359.01 237 -358.02 237 -357 237 C-357 235.35 -357 233.7 -357 232 C-355.68 231.67 -354.36 231.34 -353 231 C-353 229.02 -353 227.04 -353 225 C-352.34 224.67 -351.68 224.34 -351 224 C-350.67 223.01 -350.34 222.02 -350 221 C-349.01 221 -348.02 221 -347 221 C-347 219.02 -347 217.04 -347 215 C-346.01 215 -345.02 215 -344 215 C-343.67 213.68 -343.34 212.36 -343 211 C-342.34 211 -341.68 211 -341 211 C-341 209.35 -341 207.7 -341 206 C-339.68 205.67 -338.36 205.34 -337 205 C-336.896875 204.278125 -336.79375 203.55625 -336.6875 202.8125 C-335.93206053 199.72206579 -334.84468685 197.58256159 -333 195 C-332.34 195 -331.68 195 -331 195 C-331 194.01 -331 193.02 -331 192 C-330.01 192 -329.02 192 -328 192 C-328 190.02 -328 188.04 -328 186 C-327.01 186 -326.02 186 -325 186 C-325 185.01 -325 184.02 -325 183 C-323.68 183 -322.36 183 -321 183 C-321 180.69 -321 178.38 -321 176 C-320.01 176 -319.02 176 -318 176 C-318 175.01 -318 174.02 -318 173 C-317.01 173 -316.02 173 -315 173 C-315 172.01 -315 171.02 -315 170 C-314.01 170 -313.02 170 -312 170 C-312 169.01 -312 168.02 -312 167 C-311.01 167 -310.02 167 -309 167 C-308.67 164.69 -308.34 162.38 -308 160 C-307.01 160 -306.02 160 -305 160 C-305 159.01 -305 158.02 -305 157 C-304.01 157 -303.02 157 -302 157 C-302 156.01 -302 155.02 -302 154 C-301.01 154 -300.02 154 -299 154 C-299 153.01 -299 152.02 -299 151 C-298.01 151 -297.02 151 -296 151 C-295.67 149.68 -295.34 148.36 -295 147 C-294.34 147 -293.68 147 -293 147 C-292.505 144.03 -292.505 144.03 -292 141 C-291.01 141 -290.02 141 -289 141 C-289 140.01 -289 139.02 -289 138 C-288.01 138 -287.02 138 -286 138 C-286 137.01 -286 136.02 -286 135 C-285.01 135 -284.02 135 -283 135 C-282.67 133.68 -282.34 132.36 -282 131 C-281.34 131 -280.68 131 -280 131 C-279.67 130.01 -279.34 129.02 -279 128 C-278.34 128 -277.68 128 -277 128 C-276.67 127.01 -276.34 126.02 -276 125 C-275.01 125 -274.02 125 -273 125 C-273 124.01 -273 123.02 -273 122 C-272.01 122 -271.02 122 -270 122 C-270 121.01 -270 120.02 -270 119 C-267.525 118.505 -267.525 118.505 -265 118 C-264.67 117.01 -264.34 116.02 -264 115 C-263.01 115 -262.02 115 -261 115 C-260.67 114.01 -260.34 113.02 -260 112 C-259.01 112 -258.02 112 -257 112 C-257 111.01 -257 110.02 -257 109 C-256.01 109 -255.02 109 -254 109 C-254 108.01 -254 107.02 -254 106 C-253.01 106 -252.02 106 -251 106 C-251 105.01 -251 104.02 -251 103 C-250.01 103 -249.02 103 -248 103 C-247.67 102.01 -247.34 101.02 -247 100 C-244.03 99.505 -244.03 99.505 -241 99 C-241 98.01 -241 97.02 -241 96 C-240.01 96 -239.02 96 -238 96 C-238 95.01 -238 94.02 -238 93 C-237.01 93 -236.02 93 -235 93 C-235 92.01 -235 91.02 -235 90 C-233.68 90 -232.36 90 -231 90 C-230.67 89.01 -230.34 88.02 -230 87 C-228.35 87 -226.7 87 -225 87 C-225 85.68 -225 84.36 -225 83 C-224.01 83 -223.02 83 -222 83 C-222 82.01 -222 81.02 -222 80 C-220.02 80 -218.04 80 -216 80 C-216 79.01 -216 78.02 -216 77 C-215.01 77 -214.02 77 -213 77 C-212.67 76.01 -212.34 75.02 -212 74 C-210.02 74 -208.04 74 -206 74 C-206 73.01 -206 72.02 -206 71 C-205.01 71 -204.02 71 -203 71 C-203 70.01 -203 69.02 -203 68 C-200.03 67.505 -200.03 67.505 -197 67 C-196.67 66.01 -196.34 65.02 -196 64 C-194.02 64 -192.04 64 -190 64 C-190 63.01 -190 62.02 -190 61 C-189.01 61 -188.02 61 -187 61 C-187 60.01 -187 59.02 -187 58 C-185.02 58 -183.04 58 -181 58 C-180.67 57.01 -180.34 56.02 -180 55 C-178.02 55 -176.04 55 -174 55 C-173.67 53.68 -173.34 52.36 -173 51 C-171.35 51 -169.7 51 -168 51 C-168 50.01 -168 49.02 -168 48 C-165.69 48 -163.38 48 -161 48 C-161 47.01 -161 46.02 -161 45 C-159.02 45 -157.04 45 -155 45 C-155 44.01 -155 43.02 -155 42 C-153.02 42 -151.04 42 -149 42 C-148.67 41.01 -148.34 40.02 -148 39 C-146.02 39 -144.04 39 -142 39 C-142 38.01 -142 37.02 -142 36 C-139.03 35.67 -136.06 35.34 -133 35 C-132.67 34.01 -132.34 33.02 -132 32 C-130.02 32 -128.04 32 -126 32 C-126 31.01 -126 30.02 -126 29 C-123.03 29 -120.06 29 -117 29 C-116.67 28.01 -116.34 27.02 -116 26 C-113.68970915 25.25740651 -111.354248 24.588562 -109 24 C-108.67 23.67 -108.34 23.34 -108 23 C-105.32941149 22.85884839 -102.67567762 22.95752893 -100 23 C-100 22.01 -100 21.02 -100 20 C-97.11788698 19.03929566 -95.30149956 18.89418117 -92.3125 18.9375 C-91.10013672 18.95103516 -91.10013672 18.95103516 -89.86328125 18.96484375 C-89.24839844 18.97644531 -88.63351562 18.98804687 -88 19 C-87.67 18.01 -87.34 17.02 -87 16 C-84.03 16 -81.06 16 -78 16 C-78 15.01 -78 14.02 -78 13 C-73.71 13 -69.42 13 -65 13 C-65 12.01 -65 11.02 -65 10 C-59.72 10 -54.44 10 -49 10 C-49 9.01 -49 8.02 -49 7 C-42.73 7 -36.46 7 -30 7 C-30 6.01 -30 5.02 -30 4 C-27.23382437 2.61691219 -24.98982 2.88789804 -21.8984375 2.90234375 C-20.68671875 2.90556641 -19.475 2.90878906 -18.2265625 2.91210938 C-16.95554687 2.92048828 -15.68453125 2.92886719 -14.375 2.9375 C-13.09625 2.94201172 -11.8175 2.94652344 -10.5 2.95117188 C-7.33328708 2.96298797 -4.16666644 2.97946185 -1 3 C-0.67 2.01 -0.34 1.02 0 0 Z " fill="#FBC42D" transform="translate(413,1)"/>
<path d="M0 0 C8.07146279 2.42056813 15.51230189 5.93520913 23.0625 9.625 C24.02851135 10.09469711 24.02851135 10.09469711 25.01403809 10.57388306 C69.84111661 32.39231717 112.76677461 63.66092135 145 102 C145.77085937 102.88171875 146.54171875 103.7634375 147.3359375 104.671875 C159.68269834 118.87053407 170.9494231 134.09433141 181 150 C181.35690918 150.56364258 181.71381836 151.12728516 182.08154297 151.70800781 C184.82536686 156.07960866 187.43145509 160.52358833 190 165 C190.48339844 165.8357959 190.96679688 166.6715918 191.46484375 167.53271484 C203.3989865 188.32446167 212.89138034 210.26990808 220.35546875 233.05712891 C221.01367769 235.04122994 221.70828057 237.01004002 222.40625 238.98046875 C230.07447794 261.21268382 234.75916345 284.79255539 237.4375 308.125 C237.51526672 308.79927032 237.59303345 309.47354065 237.67315674 310.16824341 C239.55544934 326.88943855 240.20883798 343.61971994 240.1875 360.4375 C240.18709213 361.66333801 240.18709213 361.66333801 240.18667603 362.91394043 C240.1570429 382.4490423 239.30570229 401.84741134 235.7109375 421.08984375 C235.05790738 424.68150943 234.56990001 428.25284238 234.125 431.875 C225.83595806 490.36622333 197.59344251 547.56657517 162 594 C161.27425781 594.94875 160.54851563 595.8975 159.80078125 596.875 C157.90827281 599.28725395 155.96648369 601.64771094 154 604 C153.18917969 604.99515625 152.37835937 605.9903125 151.54296875 607.015625 C144.13733294 615.93637177 136.04898634 624.1660537 127.875 632.375 C127.32241516 632.93276123 126.76983032 633.49052246 126.20050049 634.06518555 C119.12361753 641.19424901 111.87926682 647.75608372 104 654 C102.97226444 654.8631674 101.9488576 655.73157225 100.93359375 656.609375 C80.61685211 674.03280915 57.65276896 688.56024961 34 701 C33.17097168 701.43908691 32.34194336 701.87817383 31.48779297 702.33056641 C-26.04744061 732.59588148 -88.87101652 746.14546156 -153.5 746.375 C-154.58049622 746.38285522 -155.66099243 746.39071045 -156.77423096 746.39880371 C-172.72049714 746.4890856 -188.22195921 745.30103248 -204 743 C-204.73510803 742.8930481 -205.47021606 742.78609619 -206.2276001 742.67590332 C-210.18689045 742.08610457 -214.1260502 741.41320906 -218.0625 740.6875 C-219.22257568 740.47512695 -220.38265137 740.26275391 -221.57788086 740.04394531 C-242.64754684 736.08215235 -262.78095525 730.08159051 -283 723 C-283.76715332 722.73751465 -284.53430664 722.4750293 -285.32470703 722.20458984 C-317.18626271 711.29183399 -349.21387858 694.42073817 -376 674 C-377.44567642 672.95133176 -378.89384387 671.90609361 -380.34375 670.86328125 C-390.6987701 663.38965804 -400.53671268 655.57293859 -410 647 C-410.56944336 646.48695313 -411.13888672 645.97390625 -411.72558594 645.4453125 C-421.34440196 636.7580609 -430.85553999 627.87798035 -439.2734375 618.00390625 C-441.21741046 615.74766614 -443.23323518 613.56636107 -445.25 611.375 C-452.97394308 602.79866931 -459.93093805 593.59906899 -466.6875 584.25 C-467.1218335 583.65348633 -467.55616699 583.05697266 -468.00366211 582.44238281 C-471 578.24004493 -471 578.24004493 -471 576 C-470.34 576 -469.68 576 -469 576 C-468.74347656 575.42378906 -468.48695313 574.84757813 -468.22265625 574.25390625 C-466.8809222 571.78048597 -465.34740523 570.00174101 -463.4375 567.9375 C-460.25019226 564.41805964 -457.15241467 560.84582984 -454.125 557.1875 C-453.38507813 556.29417969 -452.64515625 555.40085937 -451.8828125 554.48046875 C-449.98554333 552.16967465 -449.98554333 552.16967465 -449.0546875 549.92578125 C-447.58019002 547.23345807 -445.40861085 545.87094207 -443 544 C-441.80570596 542.64539804 -440.66100188 541.24588004 -439.5625 539.8125 C-435.83742147 535.04721086 -432.0353702 530.3543198 -428.1875 525.6875 C-427.58268799 524.95354004 -426.97787598 524.21958008 -426.35473633 523.46337891 C-421.80474477 517.95232701 -417.20262999 512.48757639 -412.578125 507.0390625 C-406.39443017 499.74979799 -400.3010842 492.42291353 -394.4375 484.875 C-390.54180171 479.86488435 -386.4745162 475.0988059 -382.1796875 470.421875 C-378.28137741 466.09041934 -374.66105515 461.53182695 -371 457 C-369.50127558 455.16562375 -368.00127702 453.33228775 -366.5 451.5 C-364.28001827 448.78924511 -362.06235776 446.07689655 -359.85546875 443.35546875 C-355.62444316 438.14863906 -351.31794534 433.01848821 -346.9375 427.9375 C-342.86241525 423.20989191 -338.88532686 418.42819993 -335.0234375 413.5234375 C-333.4699314 411.58605345 -331.89557697 409.68177579 -330.2890625 407.7890625 C-329.8264502 407.24266113 -329.36383789 406.69625977 -328.88720703 406.13330078 C-327.5639407 404.57528392 -326.23523034 403.0218957 -324.90625 401.46875 C-322.79627923 399.25600771 -322.79627923 399.25600771 -323 397 C-321.99582031 396.98582031 -320.99164063 396.97164063 -319.95703125 396.95703125 C-306.42436971 396.56772183 -294.29081246 393.32712433 -284 384 C-270.00274477 368.69196501 -263.16699895 349.09914274 -261.10205078 328.74414062 C-259.91087721 317.45510943 -257.61722862 312.67411364 -249 305 C-247.67138404 303.42629955 -246.37831689 301.82180421 -245.125 300.1875 C-241.92087299 296.10658974 -238.58527214 292.16884658 -235.1875 288.25 C-231.08974376 283.51744385 -227.14428344 278.70017677 -223.3125 273.75 C-218.2228008 267.17839701 -212.884254 260.884254 -207 255 C-206.5978125 255.91265625 -206.5978125 255.91265625 -206.1875 256.84375 C-204.81747658 259.90827608 -203.41431102 262.95563561 -202 266 C-201.70528809 266.63695801 -201.41057617 267.27391602 -201.10693359 267.93017578 C-196.95634525 276.82059355 -192.66219589 284.68384623 -186 292 C-185.48308594 292.62003906 -184.96617187 293.24007813 -184.43359375 293.87890625 C-176.94651947 302.26668119 -164.09916169 309.38855339 -152.84375 310.23828125 C-138.78127449 310.5446884 -126.25919157 305.94318525 -115.625 296.6875 C-92.48260383 274.18689948 -83.38275175 242.54217217 -82.52929688 210.91894531 C-82.28619078 182.54846384 -88.80349267 156.52539738 -103 132 C-103.75703986 130.67478147 -104.51357242 129.34927299 -105.26953125 128.0234375 C-105.84058594 127.02570313 -106.41164063 126.02796875 -107 125 C-106.26007813 124.59394531 -105.52015625 124.18789062 -104.7578125 123.76953125 C-97.15510633 118.8913076 -91.79010072 110.54605826 -86.30273438 103.46240234 C-82.46149261 98.52499485 -78.43606699 93.77143829 -74.34277344 89.04223633 C-70.57445717 84.68565626 -66.91177112 80.25363109 -63.28125 75.78125 C-60.70157112 72.63616205 -58.07368017 69.53520324 -55.4375 66.4375 C-52.23256144 62.6691525 -49.07312111 58.87753727 -46 55 C-42.47116597 50.54746299 -38.81770671 46.21314021 -35.13671875 41.88671875 C-32.21995487 38.45428391 -29.34306574 34.99407185 -26.5 31.5 C-22.75870283 26.90354919 -18.94441982 22.37500752 -15.10571289 17.86010742 C-11.26749292 13.33757992 -7.51004505 8.7547211 -3.77734375 4.14453125 C-2 2 -2 2 0 0 Z " fill="#E49E2A" transform="translate(605,96)"/>
<path d="M0 0 C18.57287059 -1.10061455 35.28028592 10.14909961 48.55078125 21.921875 C56.72024732 29.29996778 64.41733144 36.91588266 71.57421875 45.28125 C72.52856671 46.39459908 73.48300075 47.50787437 74.4375 48.62109375 C74.94917725 49.21833252 75.46085449 49.81557129 75.98803711 50.4309082 C77.04664077 51.66581002 78.10605051 52.90002129 79.16625977 54.13354492 C81.3141685 56.63387915 83.45438555 59.13583976 85.55078125 61.6796875 C95.67749536 73.82214565 107.59267652 79.82206187 122.69921875 83.59375 C147.75942737 90.24549963 168.45075659 103.8691207 182.69921875 125.90625 C185.18166301 130.20644033 187.05428608 134.65427966 188.82421875 139.28125 C189.07059082 139.92143066 189.31696289 140.56161133 189.57080078 141.22119141 C192.83146005 150.15138677 193.90382843 158.807698 193.82421875 168.28125 C193.83195312 169.20164062 193.8396875 170.12203125 193.84765625 171.0703125 C193.78203542 194.36570628 182.77752789 213.0491309 166.6484375 229.2109375 C151.18731548 243.61570956 130.36518843 249.13739439 109.70898438 248.41308594 C96.70865688 247.61022948 86.18250489 241.51637597 75.32421875 234.90625 C58.59850918 224.73318872 40.70356392 216.73431068 21.57421875 212.28125 C20.80851563 212.07757812 20.0428125 211.87390625 19.25390625 211.6640625 C-12.52433113 204.0079195 -45.73365516 219.89167512 -72.34570312 235.69482422 C-90.69513644 246.57656341 -107.76763737 251.36567842 -129.046875 246.25390625 C-143.34263715 242.13870998 -154.86799257 234.65763338 -165.42578125 224.28125 C-166.36550781 223.36085938 -166.36550781 223.36085938 -167.32421875 222.421875 C-176.97997918 212.19812866 -181.96671079 199.66939317 -185.42578125 186.28125 C-185.67199219 185.33765625 -185.91820312 184.3940625 -186.171875 183.421875 C-190.67864608 162.90829628 -185.91992487 142.16196228 -175.42578125 124.28125 C-160.24150213 100.79631306 -138.16573957 89.47142988 -111.953125 82.3359375 C-92.82257977 76.9091559 -80.48048479 64.03400103 -68.4609375 48.82421875 C-65.68846186 45.35995457 -62.7278072 42.08998635 -59.734375 38.81640625 C-58.14475054 37.07077803 -56.57545767 35.30648882 -55.0234375 33.52734375 C-49.31415867 27.04239671 -43.30198298 21.50795825 -36.42578125 16.28125 C-35.24242187 15.35699219 -35.24242187 15.35699219 -34.03515625 14.4140625 C-24.01214895 6.94659018 -12.44993372 1.44347058 0 0 Z " fill="#FDFEFD" transform="translate(453.42578125,448.71875)"/>
<path d="M0 0 C8.77337712 6.69807265 15.27761995 14.53627082 21 24 C21.34514648 24.56138672 21.69029297 25.12277344 22.04589844 25.70117188 C41.51934615 57.919214 44.68232031 98.92068605 36 135 C31.45087196 152.54663671 24.17918611 168.42400583 12 182 C11.41089844 182.69351563 10.82179688 183.38703125 10.21484375 184.1015625 C1.56459619 193.61499825 -11.2622276 200.23747867 -24.04296875 201.23828125 C-39.04235469 201.59230402 -51.86561568 195.20093283 -62.6875 184.9375 C-75.16429691 171.76056628 -82.23975041 155.67045782 -87.3125 138.4375 C-87.67637817 137.21728149 -87.67637817 137.21728149 -88.04760742 135.97241211 C-91.6967894 122.88875966 -92.44492537 109.56367768 -92.4375 96.0625 C-92.43810425 94.92322052 -92.43810425 94.92322052 -92.4387207 93.76092529 C-92.3435273 62.38403048 -83.05289136 30.12700479 -61 7 C-54.69910405 1.01763276 -48.09027261 -2.89222809 -40 -6 C-38.88625 -6.433125 -37.7725 -6.86625 -36.625 -7.3125 C-23.06301587 -9.88460044 -11.60386573 -7.16074986 0 0 Z " fill="#FDFEFD" transform="translate(483,206)"/>
<path d="M0 0 C8.56336288 5.64791597 15.78466364 12.77678304 20.7421875 21.80859375 C21.31453125 22.81148438 21.886875 23.814375 22.4765625 24.84765625 C32.00300339 42.5570656 35.18331941 62.04937147 35.1796875 81.99609375 C35.18108734 82.73582428 35.18248718 83.47555481 35.18392944 84.23770142 C35.16236774 98.19224856 33.41248582 111.31287059 29.7421875 124.80859375 C29.54463867 125.55077148 29.34708984 126.29294922 29.14355469 127.05761719 C22.38294343 151.6363507 6.84447934 177.42442814 -15.2578125 190.80859375 C-28.58955501 197.79493958 -41.96902376 201.49582933 -56.93359375 197.93359375 C-64.03901015 195.39534864 -69.68590074 191.85298723 -75.2578125 186.80859375 C-76.16080078 186.06029297 -76.16080078 186.06029297 -77.08203125 185.296875 C-88.53322657 175.08086479 -93.29280009 159.12467036 -97.2578125 144.80859375 C-97.46390137 144.0820459 -97.66999023 143.35549805 -97.88232422 142.60693359 C-99.99411982 133.89036068 -99.65450435 124.8455927 -99.6328125 115.93359375 C-99.63193634 115.06076752 -99.63106018 114.18794128 -99.63015747 113.28866577 C-99.58738112 100.40143841 -99.09258843 88.20210504 -95.2578125 75.80859375 C-95.02175293 75.00583008 -94.78569336 74.20306641 -94.54248047 73.37597656 C-85.76209069 44.06272172 -68.88642177 16.97862196 -41.8828125 1.5703125 C-29.42043257 -4.79190514 -12.79006282 -6.39503141 0 0 Z " fill="#FDFEFD" transform="translate(667.2578125,294.19140625)"/>
<path d="M0 0 C0.91007812 0.40089844 1.82015625 0.80179687 2.7578125 1.21484375 C10.75616815 5.14565956 16.69210728 10.84662339 23 17 C23.64710938 17.57363281 24.29421875 18.14726562 24.9609375 18.73828125 C45.22279349 37.14517859 55.05955608 68.74017597 59 95 C59.13148438 95.85207031 59.26296875 96.70414062 59.3984375 97.58203125 C62.9785485 125.98101983 57.42082219 158.0474084 39.625 181.0625 C31.34459998 190.48746044 20.36689562 197.37444474 7.66015625 198.48046875 C-7.75420971 199.23452198 -19.72813071 194.22227303 -32 185 C-32.98226562 184.27683594 -32.98226562 184.27683594 -33.984375 183.5390625 C-47.92187242 172.47857143 -57.18423353 155.11035754 -64 139 C-64.32838867 138.23961426 -64.65677734 137.47922852 -64.99511719 136.69580078 C-67.50861806 130.69053978 -69.24123998 124.73021384 -70.625 118.375 C-70.83664795 117.40916992 -71.0482959 116.44333984 -71.26635742 115.44824219 C-75.92119236 93.65934519 -77.49744168 70.77650388 -72 49 C-71.7215625 47.74316406 -71.443125 46.48632812 -71.15625 45.19140625 C-68.09605155 32.30427741 -62.82593947 20.98672063 -54 11 C-53.25556641 10.08154297 -53.25556641 10.08154297 -52.49609375 9.14453125 C-39.51278274 -5.5959196 -17.17649972 -7.76105299 0 0 Z " fill="#FDFEFD" transform="translate(286,295)"/>
<path d="M0 0 C29.7 0 59.4 0 90 0 C90.33 0.99 90.66 1.98 91 3 C91.82725586 2.99476318 92.65451172 2.98952637 93.50683594 2.98413086 C97.25454957 2.96334531 101.00225106 2.95033476 104.75 2.9375 C106.05195312 2.92912109 107.35390625 2.92074219 108.6953125 2.91210938 C110.57089844 2.90727539 110.57089844 2.90727539 112.484375 2.90234375 C114.21252441 2.89448853 114.21252441 2.89448853 115.97558594 2.88647461 C118.51926964 2.98195515 120.58398313 3.25082739 123 4 C123 4.99 123 5.98 123 7 C128.28 7 133.56 7 139 7 C139 7.99 139 8.98 139 10 C143.29 10 147.58 10 152 10 C152 10.99 152 11.98 152 13 C156.29 13 160.58 13 165 13 C165 13.99 165 14.98 165 16 C167.97 16 170.94 16 174 16 C174.33 16.99 174.66 17.98 175 19 C177.64 19 180.28 19 183 19 C183.33 20.32 183.66 21.64 184 23 C187.3 23 190.6 23 194 23 C194 23.99 194 24.98 194 26 C196.97 26 199.94 26 203 26 C203 26.99 203 27.98 203 29 C206.3 29 209.6 29 213 29 C213 29.99 213 30.98 213 32 C214.98 32 216.96 32 219 32 C219 32.99 219 33.98 219 35 C219.928125 34.95875 220.85625 34.9175 221.8125 34.875 C225 35 225 35 228 37 C228 37.66 228 38.32 228 39 C230.31 39 232.62 39 235 39 C235 39.99 235 40.98 235 42 C237.31 42 239.62 42 242 42 C242 42.99 242 43.98 242 45 C243.98 45 245.96 45 248 45 C248 45.99 248 46.98 248 48 C249.98 48 251.96 48 254 48 C254.33 48.99 254.66 49.98 255 51 C256.65 51 258.3 51 260 51 C260.33 52.32 260.66 53.64 261 55 C262.98 55 264.96 55 267 55 C267 55.99 267 56.98 267 58 C269.31 58 271.62 58 274 58 C274 58.99 274 59.98 274 61 C275.98 61 277.96 61 280 61 C280 61.99 280 62.98 280 64 C280.99 64 281.98 64 283 64 C283 64.99 283 65.98 283 67 C284.98 67 286.96 67 289 67 C289.33 68.32 289.66 69.64 290 71 C290.7425 71.12375 291.485 71.2475 292.25 71.375 C294.80141485 71.95486701 296.7267573 72.73708739 299 74 C299 74.99 299 75.98 299 77 C300.32 77 301.64 77 303 77 C303 77.99 303 78.98 303 80 C304.98 80 306.96 80 309 80 C309 80.99 309 81.98 309 83 C309.99 83 310.98 83 312 83 C312 84.32 312 85.64 312 87 C313.98 87 315.96 87 318 87 C318.33 87.99 318.66 88.98 319 90 C319.99 90 320.98 90 322 90 C322 90.99 322 91.98 322 93 C322.99 93 323.98 93 325 93 C325 93.99 325 94.98 325 96 C325.99 96 326.98 96 328 96 C328 96.99 328 97.98 328 99 C329.65 99 331.3 99 333 99 C333.66 100.32 334.32 101.64 335 103 C335.99 103 336.98 103 338 103 C338 103.99 338 104.98 338 106 C338.99 106 339.98 106 341 106 C341 106.99 341 107.98 341 109 C341.99 109 342.98 109 344 109 C344 109.99 344 110.98 344 112 C345.98 112.33 347.96 112.66 350 113 C350 113.66 350 114.32 350 115 C351.32 115.33 352.64 115.66 354 116 C354 116.99 354 117.98 354 119 C354.99 119 355.98 119 357 119 C357 119.99 357 120.98 357 122 C357.99 122 358.98 122 360 122 C360 122.99 360 123.98 360 125 C360.99 125 361.98 125 363 125 C363 125.99 363 126.98 363 128 C364.32 128.33 365.64 128.66 367 129 C367 129.66 367 130.32 367 131 C367.99 131.33 368.98 131.66 370 132 C370 132.99 370 133.98 370 135 C370.99 135 371.98 135 373 135 C373 135.99 373 136.98 373 138 C373.99 138 374.98 138 376 138 C376 138.99 376 139.98 376 141 C376.99 141 377.98 141 379 141 C379 141.99 379 142.98 379 144 C379.99 144 380.98 144 382 144 C382.28875 144.969375 382.5775 145.93875 382.875 146.9375 C383.64214682 150.10664203 383.64214682 150.10664203 386 151 C386 151.99 386 152.98 386 154 C386.99 154 387.98 154 389 154 C389 154.99 389 155.98 389 157 C389.99 157 390.98 157 392 157 C392 157.99 392 158.98 392 160 C392.99 160 393.98 160 395 160 C395 160.99 395 161.98 395 163 C396.32 163.66 397.64 164.32 399 165 C399 166.65 399 168.3 399 170 C399.99 170 400.98 170 402 170 C402 170.99 402 171.98 402 173 C402.99 173 403.98 173 405 173 C405 173.99 405 174.98 405 176 C405.99 176 406.98 176 408 176 C408 176.99 408 177.98 408 179 C408.99 179.33 409.98 179.66 411 180 C411 181.98 411 183.96 411 186 C412.32 186 413.64 186 415 186 C415 186.99 415 187.98 415 189 C415.99 189 416.98 189 418 189 C418.33 189.99 418.66 190.98 419 192 C419.66 192.33 420.32 192.66 421 193 C421 194.98 421 196.96 421 199 C421.99 199 422.98 199 424 199 C424 199.99 424 200.98 424 202 C424.99 202 425.98 202 427 202 C427 203.98 427 205.96 427 208 C428.32 208.33 429.64 208.66 431 209 C431.185625 210.2065625 431.185625 210.2065625 431.375 211.4375 C431.58125 212.283125 431.7875 213.12875 432 214 C432.66 214.33 433.32 214.66 434 215 C434 215.99 434 216.98 434 218 C434.99 218 435.98 218 437 218 C437 219.98 437 221.96 437 224 C437.99 224 438.98 224 440 224 C440 225.32 440 226.64 440 228 C440.99 228 441.98 228 443 228 C443 229.98 443 231.96 443 234 C443.99 234 444.98 234 446 234 C446.33 235.98 446.66 237.96 447 240 C447.99 240.33 448.98 240.66 450 241 C450 242.98 450 244.96 450 247 C450.99 247 451.98 247 453 247 C453 248.98 453 250.96 453 253 C453.99 253 454.98 253 456 253 C456 254.98 456 256.96 456 259 C456.99 259.33 457.98 259.66 459 260 C459 262.97 459 265.94 459 269 C460.32 269.33 461.64 269.66 463 270 C463 271.65 463 273.3 463 275 C463.99 275.33 464.98 275.66 466 276 C466 277.98 466 279.96 466 282 C466.99 282 467.98 282 469 282 C469 284.97 469 287.94 469 291 C469.99 291.33 470.98 291.66 472 292 C472 293.98 472 295.96 472 298 C472.99 298 473.98 298 475 298 C475 301.3 475 304.6 475 308 C475.99 308 476.98 308 478 308 C478.96070434 310.88211302 479.10581883 312.69850044 479.0625 315.6875 C479.05347656 316.49574219 479.04445313 317.30398438 479.03515625 318.13671875 C479.01775391 319.05904297 479.01775391 319.05904297 479 320 C479.99 320 480.98 320 482 320 C482 322.31 482 324.62 482 327 C482.99 327.33 483.98 327.66 485 328 C485 332.95 485 337.9 485 343 C485.99 343 486.98 343 488 343 C488 346.96 488 350.92 488 355 C488.99 355.33 489.98 355.66 491 356 C491 361.28 491 366.56 491 372 C491.99 372.33 492.98 372.66 494 373 C494.92188461 375.76565382 495.11785222 377.38283702 495.09765625 380.23046875 C495.09443359 381.03291016 495.09121094 381.83535156 495.08789062 382.66210938 C495.07951172 383.49548828 495.07113281 384.32886719 495.0625 385.1875 C495.05798828 386.03248047 495.05347656 386.87746094 495.04882812 387.74804688 C495.03705403 389.83206155 495.0191189 391.91603977 495 394 C495.99 394.33 496.98 394.66 498 395 C498 405.23 498 415.46 498 426 C498.66 426 499.32 426 500 426 C500 446.79 500 467.58 500 489 C499.34 489 498.68 489 498 489 C498.00523682 489.89831543 498.01047363 490.79663086 498.01586914 491.72216797 C498.03289725 495.05062499 498.04544337 498.37903581 498.05493164 501.70751953 C498.05996474 503.1489332 498.06679173 504.59034176 498.07543945 506.03173828 C498.08754983 508.10190085 498.09323847 510.17199601 498.09765625 512.2421875 C498.10289307 513.4885498 498.10812988 514.73491211 498.11352539 516.01904297 C498 519 498 519 497 521 C496.34 521 495.68 521 495 521 C495.01740234 522.91425781 495.01740234 522.91425781 495.03515625 524.8671875 C495.04453417 526.53645687 495.05363437 528.20572783 495.0625 529.875 C495.07087891 530.71675781 495.07925781 531.55851563 495.08789062 532.42578125 C495.09111328 533.23144531 495.09433594 534.03710938 495.09765625 534.8671875 C495.10289307 535.61081543 495.10812988 536.35444336 495.11352539 537.12060547 C495 539 495 539 494 541 C493.01 541 492.02 541 491 541 C491 546.28 491 551.56 491 557 C490.34 557.33 489.68 557.66 489 558 C488.5316735 560.58605332 488.5316735 560.58605332 488.375 563.5625 C488.30023437 564.57441406 488.22546875 565.58632813 488.1484375 566.62890625 C488.09945312 567.41136719 488.05046875 568.19382812 488 569 C487.01 569.33 486.02 569.66 485 570 C485 573.96 485 577.92 485 582 C484.34 582.33 483.68 582.66 483 583 C482.53476937 584.89533342 482.53476937 584.89533342 482.375 587.0625 C482.25125 588.361875 482.1275 589.66125 482 591 C481.01 591.33 480.02 591.66 479 592 C479.0309375 593.918125 479.0309375 593.918125 479.0625 595.875 C479.125 599.75 479.125 599.75 478 602 C477.01 602 476.02 602 475 602 C475 604.97 475 607.94 475 611 C474.01 611 473.02 611 472 611 C472 613.31 472 615.62 472 618 C471.01 618 470.02 618 469 618 C469 620.97 469 623.94 469 627 C468.01 627 467.02 627 466 627 C466 628.98 466 630.96 466 633 C465.01 633.33 464.02 633.66 463 634 C463 635.65 463 637.3 463 639 C461.68 639.33 460.36 639.66 459 640 C459 642.31 459 644.62 459 647 C458.01 647 457.02 647 456 647 C456 648.98 456 650.96 456 653 C455.01 653 454.02 653 453 653 C453 655.97 453 658.94 453 662 C452.01 662 451.02 662 450 662 C450 663.32 450 664.64 450 666 C449.01 666 448.02 666 447 666 C447 667.98 447 669.96 447 672 C445.68 672 444.36 672 443 672 C443 674.31 443 676.62 443 679 C442.01 679 441.02 679 440 679 C440 680.98 440 682.96 440 685 C439.01 685 438.02 685 437 685 C437 686.98 437 688.96 437 691 C436.01 691 435.02 691 434 691 C433.67 692.32 433.34 693.64 433 695 C432.34 695 431.68 695 431 695 C431 696.65 431 698.3 431 700 C429.68 700.33 428.36 700.66 427 701 C427 701.99 427 702.98 427 704 C426.01 704 425.02 704 424 704 C424 705.98 424 707.96 424 710 C423.01 710.33 422.02 710.66 421 711 C421 711.99 421 712.98 421 714 C420.01 714 419.02 714 418 714 C418 715.98 418 717.96 418 720 C417.01 720 416.02 720 415 720 C415 720.99 415 721.98 415 723 C413.68 723 412.36 723 411 723 C411 724.98 411 726.96 411 729 C410.34 729.33 409.68 729.66 409 730 C408.67 730.99 408.34 731.98 408 733 C407.01 733 406.02 733 405 733 C405 733.99 405 734.98 405 736 C404.01 736 403.02 736 402 736 C402 736.99 402 737.98 402 739 C401.01 739 400.02 739 399 739 C398.67 741.31 398.34 743.62 398 746 C397.01 746 396.02 746 395 746 C395 746.99 395 747.98 395 749 C394.01 749 393.02 749 392 749 C392 749.99 392 750.98 392 752 C391.01 752 390.02 752 389 752 C389 752.99 389 753.98 389 755 C388.01 755 387.02 755 386 755 C385.67 756.32 385.34 757.64 385 759 C384.34 759 383.68 759 383 759 C382.67 759.99 382.34 760.98 382 762 C381.01 762 380.02 762 379 762 C379 763.65 379 765.3 379 767 C378.01 767.33 377.02 767.66 376 768 C376 768.99 376 769.98 376 771 C375.01 771 374.02 771 373 771 C373 771.99 373 772.98 373 774 C371.03814584 775.71140469 369.03697617 777.37873325 367 779 C366.67 779.66 366.34 780.32 366 781 C365.01 781 364.02 781 363 781 C363 781.99 363 782.98 363 784 C362.01 784 361.02 784 360 784 C360 784.99 360 785.98 360 787 C358.02 787 356.04 787 354 787 C353.67 788.32 353.34 789.64 353 791 C352.34 791 351.68 791 351 791 C350.67 791.99 350.34 792.98 350 794 C349.01 794 348.02 794 347 794 C347 794.99 347 795.98 347 797 C346.01 797 345.02 797 344 797 C344 797.99 344 798.98 344 800 C343.01 800 342.02 800 341 800 C341 800.99 341 801.98 341 803 C340.01 803 339.02 803 338 803 C338 803.99 338 804.98 338 806 C336.68 806.33 335.36 806.66 334 807 C334 807.66 334 808.32 334 809 C332.02 809.33 330.04 809.66 328 810 C328 810.99 328 811.98 328 813 C327.01 813 326.02 813 325 813 C325 813.99 325 814.98 325 816 C324.01 816 323.02 816 322 816 C322 816.99 322 817.98 322 819 C319.69 819 317.38 819 315 819 C315 820.32 315 821.64 315 823 C314.01 823 313.02 823 312 823 C312 823.99 312 824.98 312 826 C310.02 826 308.04 826 306 826 C306 826.99 306 827.98 306 829 C305.01 829 304.02 829 303 829 C302.67 829.99 302.34 830.98 302 832 C298.62132353 834.46552067 297.29441798 835 293 835 C292.67 836.32 292.34 837.64 292 839 C290.35 839 288.7 839 287 839 C286.67 839.99 286.34 840.98 286 842 C285.01 842 284.02 842 283 842 C283 842.99 283 843.98 283 845 C281.02 845 279.04 845 277 845 C277 845.99 277 846.98 277 848 C275.02 848 273.04 848 271 848 C271 848.99 271 849.98 271 851 C268.69 851 266.38 851 264 851 C264 852.32 264 853.64 264 855 C262.02 855 260.04 855 258 855 C258 855.99 258 856.98 258 858 C256.68 858 255.36 858 254 858 C253.67 858.99 253.34 859.98 253 861 C250.36 861 247.72 861 245 861 C245 861.99 245 862.98 245 864 C243.02 864 241.04 864 239 864 C239 864.99 239 865.98 239 867 C236.69 867 234.38 867 232 867 C231.67 868.32 231.34 869.64 231 871 C229.35 871 227.7 871 226 871 C225.67 871.99 225.34 872.98 225 874 C223.02 874 221.04 874 219 874 C219 874.99 219 875.98 219 877 C216.03 877 213.06 877 210 877 C210 877.99 210 878.98 210 880 C207.69 880 205.38 880 203 880 C203 880.99 203 881.98 203 883 C199.04 883 195.08 883 191 883 C190.67 884.32 190.34 885.64 190 887 C187.03 887 184.06 887 181 887 C181 887.99 181 888.98 181 890 C180.36191406 890.04898438 179.72382812 890.09796875 179.06640625 890.1484375 C178.24011719 890.22320313 177.41382813 890.29796875 176.5625 890.375 C175.73878906 890.44460938 174.91507813 890.51421875 174.06640625 890.5859375 C173.38449219 890.72257813 172.70257812 890.85921875 172 891 C171.67 891.66 171.34 892.32 171 893 C167.7 893 164.4 893 161 893 C161 893.99 161 894.98 161 896 C157.04 896 153.08 896 149 896 C149 896.99 149 897.98 149 899 C143.72 899 138.44 899 133 899 C133 899.99 133 900.98 133 902 C129.23699626 903.25433458 125.72789091 903.10695422 121.8125 903.0625 C121.06291016 903.05798828 120.31332031 903.05347656 119.54101562 903.04882812 C117.69397617 903.03706354 115.84697787 903.01912865 114 903 C113.67 903.99 113.34 904.98 113 906 C105.74 906 98.48 906 91 906 C91 906.66 91 907.32 91 908 C59.65 908 28.3 908 -4 908 C-4 907.34 -4 906.68 -4 906 C-4.68102783 906.00523682 -5.36205566 906.01047363 -6.0637207 906.01586914 C-9.14663777 906.03664458 -12.2295401 906.04966198 -15.3125 906.0625 C-16.38435547 906.07087891 -17.45621094 906.07925781 -18.56054688 906.08789062 C-19.58857422 906.09111328 -20.61660156 906.09433594 -21.67578125 906.09765625 C-22.62364502 906.10289307 -23.57150879 906.10812988 -24.5480957 906.11352539 C-27 906 -27 906 -30 905 C-30 904.34 -30 903.68 -30 903 C-34.95 903 -39.9 903 -45 903 C-45.33 901.68 -45.66 900.36 -46 899 C-51.28 899 -56.56 899 -62 899 C-62 898.01 -62 897.02 -62 896 C-65.96 896 -69.92 896 -74 896 C-74.33 895.34 -74.66 894.68 -75 894 C-77.12576782 893.53348793 -77.12576782 893.53348793 -79.5625 893.375 C-80.38878906 893.30023437 -81.21507812 893.22546875 -82.06640625 893.1484375 C-82.70449219 893.09945312 -83.34257812 893.05046875 -84 893 C-84.33 892.01 -84.66 891.02 -85 890 C-87.97 890 -90.94 890 -94 890 C-94 889.01 -94 888.02 -94 887 C-96.97 887 -99.94 887 -103 887 C-103.33 885.68 -103.66 884.36 -104 883 C-106.97 883 -109.94 883 -113 883 C-113 882.01 -113 881.02 -113 880 C-116.3 880 -119.6 880 -123 880 C-123 879.01 -123 878.02 -123 877 C-125.64 877 -128.28 877 -131 877 C-131.33 876.01 -131.66 875.02 -132 874 C-133.98 874 -135.96 874 -138 874 C-138.33 873.01 -138.66 872.02 -139 871 C-140.65 871 -142.3 871 -144 871 C-144.33 869.68 -144.66 868.36 -145 867 C-147.31 867 -149.62 867 -152 867 C-152 866.01 -152 865.02 -152 864 C-153.98 864 -155.96 864 -158 864 C-158 863.01 -158 862.02 -158 861 C-159.98 861 -161.96 861 -164 861 C-164.33 860.01 -164.66 859.02 -165 858 C-166.98 858 -168.96 858 -171 858 C-171 857.01 -171 856.02 -171 855 C-172.65 855 -174.3 855 -176 855 C-176.33 853.68 -176.66 852.36 -177 851 C-179.31 851 -181.62 851 -184 851 C-184 850.01 -184 849.02 -184 848 C-184.99 848 -185.98 848 -187 848 C-187 847.01 -187 846.02 -187 845 C-188.98 845 -190.96 845 -193 845 C-193 844.01 -193 843.02 -193 842 C-194.98 842 -196.96 842 -199 842 C-199.33 841.01 -199.66 840.02 -200 839 C-200.99 838.67 -201.98 838.34 -203 838 C-203 837.01 -203 836.02 -203 835 C-204.98 835 -206.96 835 -209 835 C-209 834.01 -209 833.02 -209 832 C-210.32 832 -211.64 832 -213 832 C-213 831.01 -213 830.02 -213 829 C-214.98 829 -216.96 829 -219 829 C-219 828.01 -219 827.02 -219 826 C-219.99 826 -220.98 826 -222 826 C-222 825.01 -222 824.02 -222 823 C-222.969375 822.87625 -223.93875 822.7525 -224.9375 822.625 C-225.948125 822.41875 -226.95875 822.2125 -228 822 C-228.33 821.34 -228.66 820.68 -229 820 C-229.99 819.67 -230.98 819.34 -232 819 C-232 818.01 -232 817.02 -232 816 C-232.99 816 -233.98 816 -235 816 C-235 815.01 -235 814.02 -235 813 C-236.65 813 -238.3 813 -240 813 C-240.33 812.01 -240.66 811.02 -241 810 C-243.01508358 809.26676204 -243.01508358 809.26676204 -245 809 C-245 808.34 -245 807.68 -245 807 C-245.99 806.67 -246.98 806.34 -248 806 C-248 805.01 -248 804.02 -248 803 C-248.99 803 -249.98 803 -251 803 C-251 802.01 -251 801.02 -251 800 C-251.99 800 -252.98 800 -254 800 C-254 799.01 -254 798.02 -254 797 C-255.65 797 -257.3 797 -259 797 C-259.33 796.01 -259.66 795.02 -260 794 C-262.01508358 793.26676204 -262.01508358 793.26676204 -264 793 C-264 792.34 -264 791.68 -264 791 C-264.99 790.67 -265.98 790.34 -267 790 C-267 789.01 -267 788.02 -267 787 C-267.99 787 -268.98 787 -270 787 C-270 786.01 -270 785.02 -270 784 C-270.99 784 -271.98 784 -273 784 C-273 783.01 -273 782.02 -273 781 C-274.32 781 -275.64 781 -277 781 C-277 780.01 -277 779.02 -277 778 C-277.99 778 -278.98 778 -280 778 C-280 777.01 -280 776.02 -280 775 C-280.99 775 -281.98 775 -283 775 C-283 773.68 -283 772.36 -283 771 C-283.99 771 -284.98 771 -286 771 C-286 770.01 -286 769.02 -286 768 C-286.99 768 -287.98 768 -289 768 C-289 767.01 -289 766.02 -289 765 C-290.32 764.67 -291.64 764.34 -293 764 C-293 763.34 -293 762.68 -293 762 C-293.99 762 -294.98 762 -296 762 C-296 761.01 -296 760.02 -296 759 C-296.99 758.67 -297.98 758.34 -299 758 C-299 757.01 -299 756.02 -299 755 C-299.99 755 -300.98 755 -302 755 C-302 754.01 -302 753.02 -302 752 C-302.99 751.67 -303.98 751.34 -305 751 C-305 749.35 -305 747.7 -305 746 C-306.32 745.67 -307.64 745.34 -309 745 C-309 744.34 -309 743.68 -309 743 C-309.99 742.67 -310.98 742.34 -312 742 C-312 741.01 -312 740.02 -312 739 C-312.99 739 -313.98 739 -315 739 C-315 738.01 -315 737.02 -315 736 C-315.99 736 -316.98 736 -318 736 C-318 734.68 -318 733.36 -318 732 C-318.99 731.67 -319.98 731.34 -321 731 C-321 729.68 -321 728.36 -321 727 C-322.32 726.67 -323.64 726.34 -325 726 C-325 725.01 -325 724.02 -325 723 C-325.99 723 -326.98 723 -328 723 C-328 722.01 -328 721.02 -328 720 C-328.99 720 -329.98 720 -331 720 C-331 718.02 -331 716.04 -331 714 C-331.99 714 -332.98 714 -334 714 C-334 713.01 -334 712.02 -334 711 C-334.99 710.67 -335.98 710.34 -337 710 C-337 708.02 -337 706.04 -337 704 C-338.32 704 -339.64 704 -341 704 C-341 703.01 -341 702.02 -341 701 C-341.66 701 -342.32 701 -343 701 C-343.495 698.03 -343.495 698.03 -344 695 C-344.99 694.67 -345.98 694.34 -347 694 C-347 692.02 -347 690.04 -347 688 C-347.99 688 -348.98 688 -350 688 C-350 687.01 -350 686.02 -350 685 C-350.99 685 -351.98 685 -353 685 C-353 683.02 -353 681.04 -353 679 C-354.32 678.67 -355.64 678.34 -357 678 C-357 676.02 -357 674.04 -357 672 C-357.99 672 -358.98 672 -360 672 C-360 670.02 -360 668.04 -360 666 C-360.99 666 -361.98 666 -363 666 C-363 663.69 -363 661.38 -363 659 C-363.99 659 -364.98 659 -366 659 C-369.19703098 655.09251769 -369.28999491 651.92991345 -369 647 C-370.32 646.67 -371.64 646.34 -373 646 C-373 644.02 -373 642.04 -373 640 C-373.99 640 -374.98 640 -376 640 C-376 638.02 -376 636.04 -376 634 C-376.99 633.67 -377.98 633.34 -379 633 C-379 630.03 -379 627.06 -379 624 C-379.99 624 -380.98 624 -382 624 C-382 622.02 -382 620.04 -382 618 C-382.99 618 -383.98 618 -385 618 C-385 614.7 -385 611.4 -385 608 C-386.32 607.67 -387.64 607.34 -389 607 C-389.1953125 604.94921875 -389.390625 602.8984375 -389.5859375 600.84765625 C-389.79089844 599.93306641 -389.79089844 599.93306641 -390 599 C-390.66 598.67 -391.32 598.34 -392 598 C-392 595.03 -392 592.06 -392 589 C-392.99 588.67 -393.98 588.34 -395 588 C-395 584.04 -395 580.08 -395 576 C-395.99 576 -396.98 576 -398 576 C-398 572.7 -398 569.4 -398 566 C-398.99 566 -399.98 566 -401 566 C-401 560.72 -401 555.44 -401 550 C-401.99 549.67 -402.98 549.34 -404 549 C-405.2062252 545.38132441 -405.10816918 542.07493749 -405.0625 538.3125 C-405.05798828 537.61060547 -405.05347656 536.90871094 -405.04882812 536.18554688 C-405.03706927 534.45699462 -405.01913454 532.72848635 -405 531 C-405.66 531 -406.32 531 -407 531 C-408.30475618 528.39048764 -408.11301572 526.47298715 -408.09765625 523.5546875 C-408.09282227 521.94013672 -408.09282227 521.94013672 -408.08789062 520.29296875 C-408.07951172 519.16503906 -408.07113281 518.03710938 -408.0625 516.875 C-408.05798828 515.73933594 -408.05347656 514.60367188 -408.04882812 513.43359375 C-408.03701615 510.62234362 -408.02054507 507.8111977 -408 505 C-408.66 505 -409.32 505 -410 505 C-411.13335166 502.73329668 -411.12343812 501.51611125 -411.12025452 499.00106812 C-411.12162918 498.16531754 -411.12300385 497.32956696 -411.12442017 496.4684906 C-411.12082489 495.54995804 -411.11722961 494.63142548 -411.11352539 493.68505859 C-411.11367142 492.71916306 -411.11381744 491.75326752 -411.1139679 490.75810242 C-411.11326937 487.55485819 -411.10547978 484.35167161 -411.09765625 481.1484375 C-411.09579186 478.93169181 -411.09436805 476.71494571 -411.09336853 474.49819946 C-411.08954504 468.65546537 -411.07971617 462.81275603 -411.06866455 456.97003174 C-411.05844682 451.01127456 -411.05387013 445.0525134 -411.04882812 439.09375 C-411.03809377 427.39582244 -411.02101935 415.69791328 -411 404 C-410.01 404 -409.02 404 -408 404 C-408 396.41 -408 388.82 -408 381 C-407.34 380.67 -406.68 380.34 -406 380 C-405.71232959 377.51476492 -405.53251504 375.11856552 -405.4375 372.625 C-405.11606176 365.34818527 -405.11606176 365.34818527 -404 362 C-403.01 362 -402.02 362 -401 362 C-401 356.72 -401 351.44 -401 346 C-400.01 346 -399.02 346 -398 346 C-398 342.7 -398 339.4 -398 336 C-397.01 336 -396.02 336 -395 336 C-395 332.04 -395 328.08 -395 324 C-394.01 323.67 -393.02 323.34 -392 323 C-392 320.03 -392 317.06 -392 314 C-391.01 314 -390.02 314 -389 314 C-389 311.03 -389 308.06 -389 305 C-387.68 304.67 -386.36 304.34 -385 304 C-385 301.03 -385 298.06 -385 295 C-384.01 295 -383.02 295 -382 295 C-382 292.03 -382 289.06 -382 286 C-381.01 285.67 -380.02 285.34 -379 285 C-379 283.02 -379 281.04 -379 279 C-378.01 279 -377.02 279 -376 279 C-376 276.03 -376 273.06 -376 270 C-375.01 269.67 -374.02 269.34 -373 269 C-373 267.35 -373 265.7 -373 264 C-371.68 263.67 -370.36 263.34 -369 263 C-369 260.69 -369 258.38 -369 256 C-368.01 256 -367.02 256 -366 256 C-366 254.02 -366 252.04 -366 250 C-365.01 250 -364.02 250 -363 250 C-363 248.02 -363 246.04 -363 244 C-362.01 243.67 -361.02 243.34 -360 243 C-360 241.02 -360 239.04 -360 237 C-359.01 237 -358.02 237 -357 237 C-357 235.35 -357 233.7 -357 232 C-355.68 231.67 -354.36 231.34 -353 231 C-353 229.02 -353 227.04 -353 225 C-352.34 224.67 -351.68 224.34 -351 224 C-350.67 223.01 -350.34 222.02 -350 221 C-349.01 221 -348.02 221 -347 221 C-347 219.02 -347 217.04 -347 215 C-346.01 215 -345.02 215 -344 215 C-343.67 213.68 -343.34 212.36 -343 211 C-342.34 211 -341.68 211 -341 211 C-341 209.35 -341 207.7 -341 206 C-339.68 205.67 -338.36 205.34 -337 205 C-336.896875 204.278125 -336.79375 203.55625 -336.6875 202.8125 C-335.93206053 199.72206579 -334.84468685 197.58256159 -333 195 C-332.34 195 -331.68 195 -331 195 C-331 194.01 -331 193.02 -331 192 C-330.01 192 -329.02 192 -328 192 C-328 190.02 -328 188.04 -328 186 C-327.01 186 -326.02 186 -325 186 C-325 185.01 -325 184.02 -325 183 C-323.68 183 -322.36 183 -321 183 C-321 180.69 -321 178.38 -321 176 C-320.01 176 -319.02 176 -318 176 C-318 175.01 -318 174.02 -318 173 C-317.01 173 -316.02 173 -315 173 C-315 172.01 -315 171.02 -315 170 C-314.01 170 -313.02 170 -312 170 C-312 169.01 -312 168.02 -312 167 C-311.01 167 -310.02 167 -309 167 C-308.67 164.69 -308.34 162.38 -308 160 C-307.01 160 -306.02 160 -305 160 C-305 159.01 -305 158.02 -305 157 C-304.01 157 -303.02 157 -302 157 C-302 156.01 -302 155.02 -302 154 C-301.01 154 -300.02 154 -299 154 C-299 153.01 -299 152.02 -299 151 C-298.01 151 -297.02 151 -296 151 C-295.67 149.68 -295.34 148.36 -295 147 C-294.34 147 -293.68 147 -293 147 C-292.505 144.03 -292.505 144.03 -292 141 C-291.01 141 -290.02 141 -289 141 C-289 140.01 -289 139.02 -289 138 C-288.01 138 -287.02 138 -286 138 C-286 137.01 -286 136.02 -286 135 C-285.01 135 -284.02 135 -283 135 C-282.67 133.68 -282.34 132.36 -282 131 C-281.34 131 -280.68 131 -280 131 C-279.67 130.01 -279.34 129.02 -279 128 C-278.34 128 -277.68 128 -277 128 C-276.67 127.01 -276.34 126.02 -276 125 C-275.01 125 -274.02 125 -273 125 C-273 124.01 -273 123.02 -273 122 C-272.01 122 -271.02 122 -270 122 C-270 121.01 -270 120.02 -270 119 C-267.525 118.505 -267.525 118.505 -265 118 C-264.67 117.01 -264.34 116.02 -264 115 C-263.01 115 -262.02 115 -261 115 C-260.67 114.01 -260.34 113.02 -260 112 C-259.01 112 -258.02 112 -257 112 C-257 111.01 -257 110.02 -257 109 C-256.01 109 -255.02 109 -254 109 C-254 108.01 -254 107.02 -254 106 C-253.01 106 -252.02 106 -251 106 C-251 105.01 -251 104.02 -251 103 C-250.01 103 -249.02 103 -248 103 C-247.67 102.01 -247.34 101.02 -247 100 C-244.03 99.505 -244.03 99.505 -241 99 C-241 98.01 -241 97.02 -241 96 C-240.01 96 -239.02 96 -238 96 C-238 95.01 -238 94.02 -238 93 C-237.01 93 -236.02 93 -235 93 C-235 92.01 -235 91.02 -235 90 C-233.68 90 -232.36 90 -231 90 C-230.67 89.01 -230.34 88.02 -230 87 C-228.35 87 -226.7 87 -225 87 C-225 85.68 -225 84.36 -225 83 C-224.01 83 -223.02 83 -222 83 C-222 82.01 -222 81.02 -222 80 C-220.02 80 -218.04 80 -216 80 C-216 79.01 -216 78.02 -216 77 C-215.01 77 -214.02 77 -213 77 C-212.67 76.01 -212.34 75.02 -212 74 C-210.02 74 -208.04 74 -206 74 C-206 73.01 -206 72.02 -206 71 C-205.01 71 -204.02 71 -203 71 C-203 70.01 -203 69.02 -203 68 C-200.03 67.505 -200.03 67.505 -197 67 C-196.67 66.01 -196.34 65.02 -196 64 C-194.02 64 -192.04 64 -190 64 C-190 63.01 -190 62.02 -190 61 C-189.01 61 -188.02 61 -187 61 C-187 60.01 -187 59.02 -187 58 C-185.02 58 -183.04 58 -181 58 C-180.67 57.01 -180.34 56.02 -180 55 C-178.02 55 -176.04 55 -174 55 C-173.67 53.68 -173.34 52.36 -173 51 C-171.35 51 -169.7 51 -168 51 C-168 50.01 -168 49.02 -168 48 C-165.69 48 -163.38 48 -161 48 C-161 47.01 -161 46.02 -161 45 C-159.02 45 -157.04 45 -155 45 C-155 44.01 -155 43.02 -155 42 C-153.02 42 -151.04 42 -149 42 C-148.67 41.01 -148.34 40.02 -148 39 C-146.02 39 -144.04 39 -142 39 C-142 38.01 -142 37.02 -142 36 C-139.03 35.67 -136.06 35.34 -133 35 C-132.67 34.01 -132.34 33.02 -132 32 C-130.02 32 -128.04 32 -126 32 C-126 31.01 -126 30.02 -126 29 C-123.03 29 -120.06 29 -117 29 C-116.67 28.01 -116.34 27.02 -116 26 C-113.68970915 25.25740651 -111.354248 24.588562 -109 24 C-108.67 23.67 -108.34 23.34 -108 23 C-105.32941149 22.85884839 -102.67567762 22.95752893 -100 23 C-100 22.01 -100 21.02 -100 20 C-97.11788698 19.03929566 -95.30149956 18.89418117 -92.3125 18.9375 C-91.10013672 18.95103516 -91.10013672 18.95103516 -89.86328125 18.96484375 C-89.24839844 18.97644531 -88.63351562 18.98804687 -88 19 C-87.67 18.01 -87.34 17.02 -87 16 C-84.03 16 -81.06 16 -78 16 C-78 15.01 -78 14.02 -78 13 C-73.71 13 -69.42 13 -65 13 C-65 12.01 -65 11.02 -65 10 C-59.72 10 -54.44 10 -49 10 C-49 9.01 -49 8.02 -49 7 C-42.73 7 -36.46 7 -30 7 C-30 6.01 -30 5.02 -30 4 C-27.23382437 2.61691219 -24.98982 2.88789804 -21.8984375 2.90234375 C-20.68671875 2.90556641 -19.475 2.90878906 -18.2265625 2.91210938 C-16.95554687 2.92048828 -15.68453125 2.92886719 -14.375 2.9375 C-13.09625 2.94201172 -11.8175 2.94652344 -10.5 2.95117188 C-7.33328708 2.96298797 -4.16666644 2.97946185 -1 3 C-0.67 2.01 -0.34 1.02 0 0 Z M23.03466797 2.05126953 C9.00652215 2.30760226 -4.80664883 4.46425189 -18.66650391 6.51660156 C-21.46667973 6.92266192 -24.26671336 7.29785853 -27.07421875 7.6484375 C-55.63099602 11.32956086 -85.13809467 18.67068683 -112 29 C-114.26966067 29.79502238 -116.54046244 30.58679605 -118.8125 31.375 C-125.05216189 33.59870929 -131.01788267 36.16636547 -137 39 C-138.99953255 39.91768587 -140.9995623 40.83428892 -143 41.75 C-144.70237734 42.54217559 -146.40474575 43.33437045 -148.10693359 44.12695312 C-150.13428037 45.0619276 -152.17040552 45.97605262 -154.20703125 46.890625 C-187.29470798 61.93242875 -219.06259488 82.70526771 -246.42431641 106.63476562 C-248.0838204 108.0726253 -249.76358915 109.48350706 -251.44921875 110.890625 C-259.24173718 117.4219576 -266.52574744 124.31057702 -273.62255859 131.58984375 C-276.85509758 134.89915697 -280.14784992 138.14648126 -283.453125 141.3828125 C-290.79016487 148.59383267 -297.66231576 155.88019014 -304 164 C-304.91558257 165.12824269 -305.83370569 166.25442684 -306.75390625 167.37890625 C-314.57374651 176.96676654 -321.89388218 186.87360799 -329 197 C-329.43521973 197.6177832 -329.87043945 198.23556641 -330.31884766 198.87207031 C-357.6975833 238.00315264 -376.84545903 281.60489449 -391 327 C-391.32726074 328.04317383 -391.65452148 329.08634766 -391.99169922 330.16113281 C-399.81196023 355.5443404 -404.48023094 382.59584751 -407 409 C-407.10151367 410.00595215 -407.20302734 411.0119043 -407.30761719 412.04833984 C-415.71288762 497.59914445 -398.02132823 582.66814101 -347.26708984 682.97802734 C-345.88714355 685.18009194 -344.53163995 687.39631243 -343.17578125 689.61328125 C-333.04579925 706.04755167 -321.75303926 721.4223593 -309.42675781 736.26904297 C-308.17142258 737.79202839 -306.93926912 739.33405915 -305.7109375 740.87890625 C-295.73636914 753.41249308 -284.3543835 764.72900022 -273.0625 776.0625 C-272.1869043 776.94276855 -271.31130859 777.82303711 -270.40917969 778.72998047 C-265.43341252 783.69341729 -260.35209306 788.44609635 -255 793 C-253.99055491 793.87722399 -252.9814169 794.75480152 -251.97265625 795.6328125 C-232.2752237 812.50121782 -211.16500207 827.55305595 -189 841 C-188.20174805 841.48436523 -187.40349609 841.96873047 -186.58105469 842.46777344 C-154.7132575 861.61915537 -120.40434923 875.84803723 -85 887 C-84.30729004 887.22236328 -83.61458008 887.44472656 -82.90087891 887.67382812 C-47.97484469 898.82064138 -8.62557492 905.40657296 28 906 C29.73564209 906.03867188 29.73564209 906.03867188 31.50634766 906.078125 C71.7183877 906.89264917 112.33325398 902.93941755 151.28320312 892.69677734 C153.81097461 892.04847937 156.34294096 891.45866129 158.890625 890.89453125 C183.7461967 885.29767508 207.81152783 875.38157854 231 865 C231.9192627 864.58927246 232.83852539 864.17854492 233.78564453 863.75537109 C278.12350166 843.74975611 318.15890589 815.6852745 354 783 C354.94359375 782.14921875 355.8871875 781.2984375 356.859375 780.421875 C366.10798981 772.05573281 375.22044051 763.47963863 383.30859375 753.96875 C385.23867842 751.72218493 387.24418139 749.55416096 389.25 747.375 C394.83653123 741.17404486 399.92496861 734.61975475 405 728 C405.4837207 727.37319336 405.96744141 726.74638672 406.46582031 726.10058594 C434.43808257 689.78280386 456.48435772 649.11313715 472 606 C472.35545898 605.02272949 472.71091797 604.04545898 473.07714844 603.03857422 C487.84618956 562.05275164 497.28691497 516.65391776 498 473 C498.02046387 471.90461914 498.04092773 470.80923828 498.06201172 469.68066406 C498.3542501 451.35900821 497.71330717 433.25558326 496 415 C495.93055176 414.20480957 495.86110352 413.40961914 495.78955078 412.59033203 C493.41305855 385.59023586 488.36206443 358.58406684 480.75244141 332.58056641 C480.22443585 330.76972322 479.7039222 328.95668672 479.18896484 327.14208984 C471.7473505 301.01030011 461.16646046 276.26228835 449 252 C448.56365234 251.12472656 448.12730469 250.24945313 447.67773438 249.34765625 C428.82344017 211.75079699 404.28666394 178.00373629 376 147 C375.11441406 146.02160156 374.22882812 145.04320312 373.31640625 144.03515625 C365.95089991 135.91872254 358.47453364 127.99960065 350.140625 120.86328125 C347.66813514 118.71113223 345.27728643 116.48019281 342.875 114.25 C337.05649253 108.94583574 330.93505861 104.10725726 324.69384766 99.31298828 C323.17059563 98.13223743 321.66787481 96.92511278 320.16796875 95.71484375 C302.76380264 81.83436654 283.52871396 69.64113193 264 59 C263.15679199 58.53464844 262.31358398 58.06929687 261.44482422 57.58984375 C235.42787133 43.30266479 208.13459538 32.32402162 180 23 C179.36735229 22.79021515 178.73470459 22.5804303 178.08288574 22.36428833 C167.8383379 18.9929909 157.52220615 16.29057271 147 13.9375 C145.85399826 13.67978821 145.85399826 13.67978821 144.68484497 13.41687012 C104.34594131 4.37673599 64.28587838 1.33805084 23.03466797 2.05126953 Z " fill="#FDFCF2" transform="translate(413,1)"/>
<path d="M0 0 C0.33 0 0.66 0 1 0 C1.01458252 0.61182129 1.02916504 1.22364258 1.04418945 1.85400391 C1.41638072 15.98149012 2.49170226 29.779172 4.65234375 43.74658203 C5.1276682 46.82751225 5.56441762 49.91322868 6 53 C2.45285025 49.29862635 2.48270035 45.90745357 2 41 C1.67 40.67 1.34 40.34 1 40 C0.76518307 37.81707226 0.58636677 35.62796826 0.4375 33.4375 C0.35371094 32.23996094 0.26992187 31.04242188 0.18359375 29.80859375 C0.12300781 28.88175781 0.06242188 27.95492188 0 27 C-0.33 27 -0.66 27 -1 27 C-1.02886537 22.68751391 -1.04675255 18.37505238 -1.0625 14.0625 C-1.07087891 12.83080078 -1.07925781 11.59910156 -1.08789062 10.33007812 C-1.09111328 9.16025391 -1.09433594 7.99042969 -1.09765625 6.78515625 C-1.10289307 5.70113525 -1.10812988 4.61711426 -1.11352539 3.50024414 C-1 1 -1 1 0 0 Z " fill="#EFC545" transform="translate(210,362)"/>
<path d="M0 0 C0.33 0 0.66 0 1 0 C1.05534912 0.8878418 1.11069824 1.77568359 1.16772461 2.69042969 C1.37538018 5.99303919 1.5863531 9.29540232 1.79956055 12.59765625 C1.89105581 14.02530626 1.98123869 15.45304103 2.07006836 16.88085938 C2.19818407 18.93643655 2.33105946 20.99165992 2.46484375 23.046875 C2.543396 24.28276367 2.62194824 25.51865234 2.70288086 26.79199219 C2.93961088 29.34797616 3.34707277 31.53938166 4 34 C4.06831987 36.4157906 4.08487642 38.83334713 4.0625 41.25 C4.05347656 42.51328125 4.04445313 43.7765625 4.03515625 45.078125 C4.02355469 46.04234375 4.01195312 47.0065625 4 48 C3.67 48 3.34 48 3 48 C3 46.35 3 44.7 3 43 C2.34 43 1.68 43 1 43 C-0.71802382 39.56395235 -0.1196618 35.61561104 -0.09765625 31.8359375 C-0.0962413 30.92872955 -0.09482635 30.02152161 -0.09336853 29.08682251 C-0.08776096 26.18284845 -0.07520718 23.27895085 -0.0625 20.375 C-0.05748598 18.40885528 -0.0529229 16.44270935 -0.04882812 14.4765625 C-0.03778906 9.6510121 -0.02051935 4.82551903 0 0 Z " fill="#FEFFFD" transform="translate(2,463)"/>
<path d="M0 0 C6.43467118 0.31100911 12.11730488 0.73738412 18.0546875 3.30859375 C20.99086836 4.35217611 23.92472009 4.51064737 27.01953125 4.69140625 C29 5 29 5 32 7 C33.92216537 7.50955515 33.92216537 7.50955515 36.01953125 7.78125 C37.18258789 7.96107422 37.18258789 7.96107422 38.36914062 8.14453125 C39.17544922 8.26183594 39.98175781 8.37914062 40.8125 8.5 C46.07509507 9.2767983 50.987264 10.12728703 56 12 C52.05687913 13.47168448 48.8456735 12.57827099 44.8046875 11.7421875 C44.10335693 11.59875412 43.40202637 11.45532074 42.67944336 11.30754089 C40.4091762 10.83962885 38.14209086 10.35804815 35.875 9.875 C34.32699561 9.55130341 32.77898128 9.22765436 31.23095703 8.90405273 C20.69916391 6.68012739 10.28864602 4.18039343 0 1 C0 0.67 0 0.34 0 0 Z " fill="#F1CA58" transform="translate(332,888)"/>
<path d="M0 0 C0.33 0 0.66 0 1 0 C1.01458252 0.65782471 1.02916504 1.31564941 1.04418945 1.9934082 C1.36321215 14.95610061 2.05609807 27.56447719 4.37890625 40.33203125 C5 44 5 44 5 48 C4.34 48 3.68 48 3 48 C2.855625 46.865625 2.71125 45.73125 2.5625 44.5625 C2.38828522 41.19222799 2.38828522 41.19222799 1 40 C0.92755947 37.98035801 0.91622812 35.95832876 0.9375 33.9375 C0.94652344 32.83277344 0.95554687 31.72804688 0.96484375 30.58984375 C0.97644531 29.73519531 0.98804688 28.88054687 1 28 C0.34 28 -0.32 28 -1 28 C-1.12873737 18.58786748 -0.79822348 9.37912587 0 0 Z " fill="#EEC54F" transform="translate(390,294)"/>
<path d="M0 0 C-7.6409555 4.38023481 -15.28338399 8.75381976 -23 13 C-23 12.01 -23 11.02 -23 10 C-22.34 10 -21.68 10 -21 10 C-20.67 9.34 -20.34 8.68 -20 8 C-19.34 8.33 -18.68 8.66 -18 9 C-17.773125 8.401875 -17.54625 7.80375 -17.3125 7.1875 C-15.62695159 4.37825265 -13.94997808 3.36706301 -11 2 C-10.01 2.33 -9.02 2.66 -8 3 C-8 2.34 -8 1.68 -8 1 C-4.85571151 -0.9090323 -3.47925125 -1.04523725 0 0 Z " fill="#FAF6E2" transform="translate(234,62)"/>
<path d="M0 0 C0.66 0.33 1.32 0.66 2 1 C1.14277344 1.78503906 0.28554688 2.57007813 -0.59765625 3.37890625 C-6.51476738 8.81106495 -12.38405607 14.25345272 -18 20 C-18.66 19.67 -19.32 19.34 -20 19 C-13.88546361 11.76823967 -7.47842356 5.78704178 0 0 Z " fill="#F9F5E0" transform="translate(304,546)"/>
<path d="M0 0 C0.33 0 0.66 0 1 0 C3.06134225 10.96714131 3.57834581 21.87054854 4 33 C3.34 32.67 2.68 32.34 2 32 C1.68758629 29.45058627 1.48696579 26.99638487 1.375 24.4375 C1.33632813 23.72658203 1.29765625 23.01566406 1.2578125 22.28320312 C1.16328217 20.52257575 1.08054183 18.76132272 1 17 C0.67 17 0.34 17 0 17 C0 11.39 0 5.78 0 0 Z " fill="#EDC853" transform="translate(905,391)"/>
<path d="M0 0 C0.33 0 0.66 0 1 0 C1.01981934 0.74983154 1.03963867 1.49966309 1.06005859 2.2722168 C1.15664529 5.74426826 1.26577056 9.21582414 1.375 12.6875 C1.4059375 13.86634766 1.436875 15.04519531 1.46875 16.25976562 C1.7332011 24.30348673 2.59330677 32.07639955 4 40 C3.34 40 2.68 40 2 40 C1.855625 38.865625 1.71125 37.73125 1.5625 36.5625 C1.38828522 33.19222799 1.38828522 33.19222799 0 32 C-0.0883967 29.6243148 -0.11530305 27.27791326 -0.09765625 24.90234375 C-0.0962413 24.19348526 -0.09482635 23.48462677 -0.09336853 22.75428772 C-0.08775443 20.48198288 -0.07519963 18.20977525 -0.0625 15.9375 C-0.05748681 14.40039204 -0.05292359 12.86328255 -0.04882812 11.32617188 C-0.03778042 7.55074358 -0.02050641 3.77538829 0 0 Z " fill="#E0B05A" transform="translate(567,402)"/>
<path d="M0 0 C1 2 1 2 0.6875 4 C0 6 0 6 -2 8 C-4.67420719 11.19179568 -6.88778303 14.4184147 -9 18 C-9.98244845 19.34631825 -10.97676564 20.68441297 -12 22 C-12.99 21.67 -13.98 21.34 -15 21 C-14.33613281 20.154375 -13.67226563 19.30875 -12.98828125 18.4375 C-8.32614883 12.46133366 -3.85010723 6.54518229 0 0 Z " fill="#D79B42" transform="translate(684,449)"/>
<path d="M0 0 C0.66 0.33 1.32 0.66 2 1 C-4.33333333 7.33333333 -10.66666667 13.66666667 -17 20 C-14.19671638 11.64979348 -6.84569914 5.26592242 0 0 Z " fill="#FBF9DD" transform="translate(242,297)"/>
<path d="M0 0 C0.80268311 -0.01095703 1.60536621 -0.02191406 2.43237305 -0.03320312 C3.27711182 -0.02353516 4.12185059 -0.01386719 4.9921875 -0.00390625 C6.2757312 0.00092773 6.2757312 0.00092773 7.58520508 0.00585938 C13.87463427 0.14505117 18.41443754 1.14136736 23.8671875 4.43359375 C20.31621285 5.61725197 19.34518157 5.13351914 15.8671875 3.99609375 C8.18080023 1.76653241 0.69370353 1.74137407 -7.1328125 3.43359375 C-4.85093265 0.7268338 -3.52860373 0.04757756 0 0 Z " fill="#DBA552" transform="translate(452.1328125,447.56640625)"/>
<path d="M0 0 C1.32 0.33 2.64 0.66 4 1 C-0.71890538 6.40052505 -5.30358857 11.61814505 -11 16 C-10.67 14.35 -10.34 12.7 -10 11 C-8.68 10.67 -7.36 10.34 -6 10 C-6 9.34 -6 8.68 -6 8 C-5.34 8 -4.68 8 -4 8 C-4 7.01 -4 6.02 -4 5 C-3.34 5 -2.68 5 -2 5 C-1.34 3.35 -0.68 1.7 0 0 Z " fill="#F9F4D7" transform="translate(132,135)"/>
<path d="M0 0 C0.33 0 0.66 0 1 0 C0.41152509 11.12014652 -1.25821357 22.01250447 -3 33 C-3.33 33 -3.66 33 -4 33 C-4.2217416 26.52021767 -3.88455235 20.67627382 -2.4375 14.35546875 C-2.00655727 12.03530389 -1.93040354 9.97823026 -2 7.625 C-2 4.26426663 -1.82569255 2.73853882 0 0 Z " fill="#EAC249" transform="translate(907,503)"/>
<path d="M0 0 C0.33 0 0.66 0 1 0 C1.02693575 2.12493141 1.04636628 4.24995912 1.0625 6.375 C1.07410156 7.55835938 1.08570313 8.74171875 1.09765625 9.9609375 C1 13 1 13 0 15 C-0.99 15 -1.98 15 -3 15 C-3.36263859 9.1977825 -2.25684543 5.36000789 0 0 Z " fill="#FEFFFD" transform="translate(907,527)"/>
<path d="M0 0 C0 3 0 3 -1.37695312 4.7175293 C-2.00537109 5.33023682 -2.63378906 5.94294434 -3.28125 6.57421875 C-3.95800781 7.24130859 -4.63476562 7.90839844 -5.33203125 8.59570312 C-6.04746094 9.28599609 -6.76289063 9.97628906 -7.5 10.6875 C-8.57314453 11.7403418 -8.57314453 11.7403418 -9.66796875 12.81445312 C-11.43879577 14.54986361 -13.21623456 16.2779073 -15 18 C-15.66 17.67 -16.32 17.34 -17 17 C-14.92212237 14.72412236 -12.83676096 12.45523273 -10.75 10.1875 C-9.87021484 9.22360352 -9.87021484 9.22360352 -8.97265625 8.24023438 C-6.15703169 5.18733808 -3.47998917 2.3171215 0 0 Z " fill="#F8F5DF" transform="translate(410,471)"/>
<path d="M0 0 C0 0.33 0 0.66 0 1 C-0.97839844 1.04898438 -1.95679688 1.09796875 -2.96484375 1.1484375 C-14.81215812 1.54045895 -14.81215812 1.54045895 -26 5 C-28.3400417 4.71758117 -30.67504723 4.38749213 -33 4 C-33 3.67 -33 3.34 -33 3 C-21.85433382 0.68258426 -11.38193609 -0.41361006 0 0 Z " fill="#E7B96D" transform="translate(465,658)"/>
<path d="M0 0 C0 0.66 0 1.32 0 2 C-3.77080449 4.51386966 -7.05070207 4.52163604 -11.4375 4.75 C-12.20126953 4.80542969 -12.96503906 4.86085938 -13.75195312 4.91796875 C-20.66127563 5.31484889 -20.66127563 5.31484889 -24 3 C-22.91460937 2.95101563 -21.82921875 2.90203125 -20.7109375 2.8515625 C-19.26560216 2.77648014 -17.82029081 2.70093472 -16.375 2.625 C-15.66214844 2.5940625 -14.94929688 2.563125 -14.21484375 2.53125 C-9.33406064 2.26258304 -4.68975657 0 0 0 Z " fill="#E3AD50" transform="translate(306,490)"/>
<path d="M0 0 C0.99 0 1.98 0 3 0 C3 0.99 3 1.98 3 3 C2.34 3 1.68 3 1 3 C1 3.66 1 4.32 1 5 C-1.90600261 6.25664978 -3.79604584 7 -7 7 C-7 7.66 -7 8.32 -7 9 C-7.99 8.67 -8.98 8.34 -10 8 C-10 7.34 -10 6.68 -10 6 C-9.01 6 -8.02 6 -7 6 C-7 5.01 -7 4.02 -7 3 C-5.02 3 -3.04 3 -1 3 C-0.67 2.01 -0.34 1.02 0 0 Z " fill="#FEFDFB" transform="translate(233,56)"/>
<path d="M0 0 C0.33 0 0.66 0 1 0 C1.32721885 4.87192509 0.4487533 7.82256671 -1.8125 12.125 C-2.33457031 13.13820313 -2.85664062 14.15140625 -3.39453125 15.1953125 C-4.78854996 17.63060553 -6.25448567 19.80893397 -8 22 C-8.66 21.67 -9.32 21.34 -10 21 C-9.61328125 20.40574219 -9.2265625 19.81148437 -8.828125 19.19921875 C-4.95173283 13.02961437 -2.23869976 6.92680043 0 0 Z " fill="#D99F45" transform="translate(643,641)"/>
<path d="M0 0 C-1.58561638 3.85593074 -4.06509954 6.33216291 -7 9.25 C-7.886875 10.14203125 -8.77375 11.0340625 -9.6875 11.953125 C-12 14 -12 14 -14 14 C-12.41438362 10.14406926 -9.93490046 7.66783709 -7 4.75 C-6.113125 3.85796875 -5.22625 2.9659375 -4.3125 2.046875 C-2 0 -2 0 0 0 Z " fill="#F9F6E3" transform="translate(613,305)"/>
<path d="M0 0 C0.99 0 1.98 0 3 0 C2.690625 0.598125 2.38125 1.19625 2.0625 1.8125 C0.89790296 4.08956772 0.89790296 4.08956772 0 7 C-0.99 7.495 -0.99 7.495 -2 8 C-2.65555119 10.52733235 -2.65555119 10.52733235 -3 13 C-3.66 13 -4.32 13 -5 13 C-5 13.99 -5 14.98 -5 16 C-5.66 16 -6.32 16 -7 16 C-7 14.02 -7 12.04 -7 10 C-6.01 10 -5.02 10 -4 10 C-3.67 8.68 -3.34 7.36 -3 6 C-2.34 6 -1.68 6 -1 6 C-1.020625 5.195625 -1.04125 4.39125 -1.0625 3.5625 C-1 1 -1 1 0 0 Z " fill="#FEFDFD" transform="translate(73,206)"/>
<path d="M0 0 C0.99 0.33 1.98 0.66 3 1 C-0.32307692 5.8 -0.32307692 5.8 -3.75 6.8125 C-4.4925 6.874375 -5.235 6.93625 -6 7 C-6 7.99 -6 8.98 -6 10 C-7.32 9.67 -8.64 9.34 -10 9 C-10 8.34 -10 7.68 -10 7 C-9.01 7 -8.02 7 -7 7 C-7 6.01 -7 5.02 -7 4 C-5.02 3.67 -3.04 3.34 -1 3 C-0.67 2.01 -0.34 1.02 0 0 Z " fill="#FEFDFC" transform="translate(217,65)"/>
<path d="M0 0 C0.99 0.33 1.98 0.66 3 1 C-0.3 4.96 -3.6 8.92 -7 13 C-7.33 11.68 -7.66 10.36 -8 9 C-7.34 8.67 -6.68 8.34 -6 8 C-5.67 7.01 -5.34 6.02 -5 5 C-4.34 5 -3.68 5 -3 5 C-3 4.01 -3 3.02 -3 2 C-2.01 1.34 -1.02 0.68 0 0 Z " fill="#FAF6DF" transform="translate(108,163)"/>
<path d="M0 0 C0.66 0.33 1.32 0.66 2 1 C0.87926138 1.83905565 -0.24674547 2.67107831 -1.375 3.5 C-2.31472656 4.19609375 -2.31472656 4.19609375 -3.2734375 4.90625 C-5 6 -5 6 -7 6 C-7.33 7.32 -7.66 8.64 -8 10 C-10.31 9.67 -12.62 9.34 -15 9 C-12.5473713 6.5473713 -10.05668467 5.45062057 -6.9375 3.9375 C-3.22569143 2.33395486 -3.22569143 2.33395486 0 0 Z " fill="#E0A242" transform="translate(612,683)"/>
<path d="M0 0 C1.98 0.99 1.98 0.99 4 2 C4 6.95 4 11.9 4 17 C3.67 17 3.34 17 3 17 C2.49622232 14.73000175 1.99709981 12.45896997 1.5 10.1875 C1.08234375 8.29064453 1.08234375 8.29064453 0.65625 6.35546875 C0 3 0 3 0 0 Z " fill="#FEFFFC" transform="translate(900,355)"/>
<path d="M0 0 C2.83443922 2.83443922 3.49801967 6.25213519 4.625 10 C4.85445312 10.73734375 5.08390625 11.4746875 5.3203125 12.234375 C7 17.71335565 7 17.71335565 7 20 C6.01 20 5.02 20 4 20 C3.87882813 19.43152344 3.75765625 18.86304688 3.6328125 18.27734375 C2.82021163 14.53312898 1.96025126 10.86529593 0.875 7.1875 C0 4 0 4 0 0 Z " fill="#EEC85B" transform="translate(883,303)"/>
<path d="M0 0 C0.33 0 0.66 0 1 0 C1.08174796 2.83392926 1.14084985 5.66544819 1.1875 8.5 C1.22520508 9.68722656 1.22520508 9.68722656 1.26367188 10.8984375 C1.33403498 16.62130318 0.29297398 20.75203857 -2 26 C-3.05284747 22.70354467 -2.93680928 20.20524788 -2.44140625 16.796875 C-2.30283203 15.8171875 -2.16425781 14.8375 -2.02148438 13.828125 C-1.87001953 12.81234375 -1.71855469 11.7965625 -1.5625 10.75 C-1.41490234 9.71875 -1.26730469 8.6875 -1.11523438 7.625 C-0.75030495 5.08226597 -0.37832478 2.54076963 0 0 Z " fill="#FAF3CC" transform="translate(907,509)"/>
<path d="M0 0 C-0.66 0 -1.32 0 -2 0 C-2 0.66 -2 1.32 -2 2 C-5 4 -5 4 -8 4 C-8 3.34 -8 2.68 -8 2 C-10.31 2.66 -12.62 3.32 -15 4 C-14 2 -14 2 -11.85546875 1.11328125 C-10.97503906 0.84902344 -10.09460938 0.58476562 -9.1875 0.3125 C-8.31480469 0.04050781 -7.44210937 -0.23148438 -6.54296875 -0.51171875 C-3.93126166 -1.01319861 -2.48283616 -0.86233704 0 0 Z " fill="#FDD14E" transform="translate(323,25)"/>
<path d="M0 0 C2.62277342 5.24554685 4.35861008 10.08293364 4 16 C3.34 16.33 2.68 16.66 2 17 C2 14.36 2 11.72 2 9 C1.34 9 0.68 9 0 9 C0 6.03 0 3.06 0 0 Z " fill="#EEC64E" transform="translate(895,343)"/>
<path d="M0 0 C0.99 0 1.98 0 3 0 C3 1.65 3 3.3 3 5 C2.34 5 1.68 5 1 5 C1 5.66 1 6.32 1 7 C-0.98 7.99 -0.98 7.99 -3 9 C-3 7.35 -3 5.7 -3 4 C-2.34 3.67 -1.68 3.34 -1 3 C-0.67 2.01 -0.34 1.02 0 0 Z " fill="#FEFDFB" transform="translate(63,222)"/>
<path d="M0 0 C0.99 0.33 1.98 0.66 3 1 C2.67 1.99 2.34 2.98 2 4 C1.34 4 0.68 4 0 4 C-0.33 5.65 -0.66 7.3 -1 9 C-2.65 8.67 -4.3 8.34 -6 8 C-6 7.34 -6 6.68 -6 6 C-5.01 6 -4.02 6 -3 6 C-3 5.01 -3 4.02 -3 3 C-2.01 3 -1.02 3 0 3 C0 2.01 0 1.02 0 0 Z " fill="#FDFCF8" transform="translate(162,104)"/>
<path d="M0 0 C0.33 0 0.66 0 1 0 C1.125 6.75 1.125 6.75 0 9 C-0.99 9 -1.98 9 -3 9 C-3.25873987 5.89512156 -3.23307327 4.37494396 -1.5625 1.6875 C-1.046875 1.130625 -0.53125 0.57375 0 0 Z " fill="#FFFFFD" transform="translate(891,594)"/>
<path d="M0 0 C0.99 0.33 1.98 0.66 3 1 C0.69 3.64 -1.62 6.28 -4 9 C-4.33 7.68 -4.66 6.36 -5 5 C-2.5625 2.25 -2.5625 2.25 0 0 Z " fill="#FAF7E3" transform="translate(118,151)"/>
<path d="M0 0 C-2.97 1.65 -5.94 3.3 -9 5 C-8 0 -8 0 -6.1875 -1.4375 C-4 -2 -4 -2 0 0 Z " fill="#FBF6E2" transform="translate(211,76)"/>
<path d="M0 0 C0.33 0.66 0.66 1.32 1 2 C-0.59025991 5.10100683 -2.2996944 7.76931277 -5 10 C-5.66 10 -6.32 10 -7 10 C-5.33248852 6.05860922 -2.77289351 3.2107188 0 0 Z " fill="#F1CA53" transform="translate(106,169)"/>
<path d="M0 0 C0.33 0 0.66 0 1 0 C1.08082094 1.95766281 1.13910778 3.91626728 1.1875 5.875 C1.23970703 7.51082031 1.23970703 7.51082031 1.29296875 9.1796875 C1.19628906 10.11039063 1.09960938 11.04109375 1 12 C0.01 12.66 -0.98 13.32 -2 14 C-1.03644647 4.58997722 -1.03644647 4.58997722 0 0 Z " fill="#FBF5D4" transform="translate(903,536)"/>
<path d="M0 0 C1.58272601 3.16545202 0.33086619 5.74418878 -0.4375 9.125 C-0.72496094 10.40632813 -1.01242187 11.68765625 -1.30859375 13.0078125 C-1.53675781 13.99523437 -1.76492188 14.98265625 -2 16 C-2.33 16 -2.66 16 -3 16 C-3 12.37 -3 8.74 -3 5 C-2.34 5 -1.68 5 -1 5 C-0.67 3.35 -0.34 1.7 0 0 Z " fill="#FAF5D1" transform="translate(15,354)"/>
<path d="M0 0 C3.51855159 1.40742064 4.38612834 2.66466523 6 6 C6.99 6.33 7.98 6.66 9 7 C8.67 7.66 8.34 8.32 8 9 C6.66079162 7.88200014 5.32877444 6.75538103 4 5.625 C2.88625 4.68527344 2.88625 4.68527344 1.75 3.7265625 C1.1725 3.15679688 0.595 2.58703125 0 2 C0 1.34 0 0.68 0 0 Z " fill="#D8A250" transform="translate(538,509)"/>
<path d="M0 0 C0.33 0.66 0.66 1.32 1 2 C-0.93694542 5.80471422 -2.70921407 9.20283196 -6 12 C-6.66 11.67 -7.32 11.34 -8 11 C-7.59007812 10.45730469 -7.18015625 9.91460937 -6.7578125 9.35546875 C-6.21898437 8.64003906 -5.68015625 7.92460937 -5.125 7.1875 C-4.59132813 6.47980469 -4.05765625 5.77210938 -3.5078125 5.04296875 C-2.29185219 3.39543703 -1.13583859 1.70375789 0 0 Z " fill="#D8A14D" transform="translate(332,465)"/>
<path d="M0 0 C0.33 0.99 0.66 1.98 1 3 C-1.10889262 6.82724957 -2.79609368 9.49860488 -7 11 C-4.84921278 7.14341602 -2.76544722 3.45680903 0 0 Z " fill="#D7A04B" transform="translate(504,375)"/>
<path d="M0 0 C2.97 0 5.94 0 9 0 C6.3139714 1.79068573 4.3373411 2.66055791 1.3125 3.625 C0.50425781 3.88539062 -0.30398438 4.14578125 -1.13671875 4.4140625 C-1.75160156 4.60742188 -2.36648438 4.80078125 -3 5 C-3 4.34 -3 3.68 -3 3 C-2.01 3 -1.02 3 0 3 C0 2.01 0 1.02 0 0 Z " fill="#FCF9E2" transform="translate(277,36)"/>
<path d="M0 0 C0.33 1.32 0.66 2.64 1 4 C-1.31 5.98 -3.62 7.96 -6 10 C-4.21739173 6.43478346 -2.24007711 3.28544643 0 0 Z " fill="#FBFBDE" transform="translate(836,703)"/>
<path d="M0 0 C0.33 0 0.66 0 1 0 C1.08121924 1.60332791 1.13929134 3.20784026 1.1875 4.8125 C1.23970703 6.15248047 1.23970703 6.15248047 1.29296875 7.51953125 C0.95081002 10.41647515 0.24606427 11.22555028 -2 13 C-1.48041715 8.62065881 -0.94324258 4.31196609 0 0 Z " fill="#DDA84F" transform="translate(699,406)"/>
<path d="M0 0 C0.66 0 1.32 0 2 0 C2 1.98 2 3.96 2 6 C1.34 6 0.68 6 0 6 C-0.33 6.99 -0.66 7.98 -1 9 C-1.09765625 2.84765625 -1.09765625 2.84765625 -1 1 C-0.67 0.67 -0.34 0.34 0 0 Z " fill="#FEFDFE" transform="translate(32,286)"/>
<path d="M0 0 C1.32 0.33 2.64 0.66 4 1 C3.34 2.32 2.68 3.64 2 5 C1.01 5 0.02 5 -1 5 C-1.66 5.66 -2.32 6.32 -3 7 C-3 5.68 -3 4.36 -3 3 C-2.01 3 -1.02 3 0 3 C0 2.01 0 1.02 0 0 Z " fill="#FEFDFC" transform="translate(178,91)"/>
<path d="M0 0 C2.97 1.65 5.94 3.3 9 5 C5.23375329 6.25541557 3.62811066 5.37061958 0 4 C0 2.68 0 1.36 0 0 Z " fill="#EDBD48" transform="translate(256,481)"/>
<path d="M0 0 C0.66 0.33 1.32 0.66 2 1 C1.09972412 2.03531726 0.17906965 3.05294165 -0.75 4.0625 C-1.51570312 4.91521484 -1.51570312 4.91521484 -2.296875 5.78515625 C-2.85890625 6.18605469 -3.4209375 6.58695312 -4 7 C-5.32 6.67 -6.64 6.34 -8 6 C-5.36 4.02 -2.72 2.04 0 0 Z " fill="#DEA44D" transform="translate(660,478)"/>
<path d="M0 0 C0.33 1.32 0.66 2.64 1 4 C-1.31 5.98 -3.62 7.96 -6 10 C-4.21739173 6.43478346 -2.24007711 3.28544643 0 0 Z " fill="#F0CD54" transform="translate(94,184)"/>
<path d="M0 0 C0.66 0 1.32 0 2 0 C1.75 2.375 1.75 2.375 1 5 C-1.0625 6.3125 -1.0625 6.3125 -3 7 C-1.125 1.125 -1.125 1.125 0 0 Z " fill="#FAF7E8" transform="translate(195,81)"/>
<path d="M0 0 C0 0.99 0 1.98 0 3 C-1.98 3.33 -3.96 3.66 -6 4 C-6 3.01 -6 2.02 -6 1 C-3 0 -3 0 0 0 Z " fill="#FFFEFD" transform="translate(277,36)"/>
<path d="M0 0 C1.27875 -0.061875 2.5575 -0.12375 3.875 -0.1875 C4.95394531 -0.23970703 4.95394531 -0.23970703 6.0546875 -0.29296875 C6.69664062 -0.19628906 7.33859375 -0.09960938 8 0 C8.66 0.99 9.32 1.98 10 3 C3.375 2.25 3.375 2.25 0 0 Z " fill="#F1CA5D" transform="translate(322,885)"/>
<path d="M0 0 C2.31 0 4.62 0 7 0 C7 0.66 7 1.32 7 2 C7.99 2.33 8.98 2.66 10 3 C8 4 8 4 6.0546875 3.44140625 C5.33539063 3.15136719 4.61609375 2.86132812 3.875 2.5625 C3.15054687 2.27503906 2.42609375 1.98757813 1.6796875 1.69140625 C0.84824219 1.34916016 0.84824219 1.34916016 0 1 C0 0.67 0 0.34 0 0 Z " fill="#F0C859" transform="translate(299,877)"/>
<path d="M0 0 C0.33 0 0.66 0 1 0 C1 1.98 1 3.96 1 6 C-0.32 6.33 -1.64 6.66 -3 7 C-1.125 1.125 -1.125 1.125 0 0 Z " fill="#FEFFFD" transform="translate(878,628)"/>
<path d="M0 0 C0.33 0 0.66 0 1 0 C1.25 3.3125 1.25 3.3125 1 7 C-0.32 7.99 -1.64 8.98 -3 10 C-2.01 6.7 -1.02 3.4 0 0 Z " fill="#FCF7D7" transform="translate(881,615)"/>
<path d="M0 0 C0.66 1.32 1.32 2.64 2 4 C2.99 4.33 3.98 4.66 5 5 C3.35 6.32 1.7 7.64 0 9 C0 6.03 0 3.06 0 0 Z " fill="#F1B736" transform="translate(346,403)"/>
<path d="M0 0 C2.50298434 2.93828597 3.46930939 5.17902761 4 9 C2.68 8.34 1.36 7.68 0 7 C0 4.69 0 2.38 0 0 Z " fill="#F0C857" transform="translate(877,288)"/>
<path d="M0 0 C0.33 0.99 0.66 1.98 1 3 C-0.375 4.5 -0.375 4.5 -2 6 C-2.66 6 -3.32 6 -4 6 C-4 6.66 -4 7.32 -4 8 C-4.66 7.67 -5.32 7.34 -6 7 C-4.02 4.69 -2.04 2.38 0 0 Z " fill="#F1CC5A" transform="translate(123,149)"/>
<path d="M0 0 C3.3 1.65 6.6 3.3 10 5 C9.01 5.495 9.01 5.495 8 6 C4.4375 4.75 4.4375 4.75 1 3 C0.67 2.01 0.34 1.02 0 0 Z " fill="#EEBD46" transform="translate(674,59)"/>
</svg>
